<?xml version="1.0" encoding="UTF-8"?>
<svg id="Camada_2" data-name="Camada 2" xmlns="http://www.w3.org/2000/svg" xmlns:xlink="http://www.w3.org/1999/xlink" viewBox="0 0 2064 2752">
  <defs>
    <style>
      .cls-1 {
        fill: #386fa6;
      }

      .cls-2 {
        fill: #075b21;
      }

      .cls-3 {
        fill: url(#Gradiente_sem_nome_25);
        opacity: .1;
      }

      .cls-4 {
        fill: #f1af35;
      }

      .cls-5 {
        fill: #63af00;
      }

      .cls-6 {
        fill: #00842c;
      }

      .cls-7 {
        fill: #5e9900;
      }

      .cls-8 {
        fill: #fcf2e1;
      }

      .cls-9 {
        fill: #a95101;
      }

      .cls-10 {
        fill: #0d6b30;
      }

      .cls-11 {
        fill: #b4d0e2;
      }

      .cls-12 {
        fill: #562700;
      }

      .cls-13 {
        fill: #014760;
      }
    </style>
    <linearGradient id="Gradiente_sem_nome_25" data-name="Gradiente sem nome 25" x1="1084.76" y1="2740.82" x2="1084.76" y2="-64.64" gradientUnits="userSpaceOnUse">
      <stop offset="0" stop-color="#000"/>
      <stop offset=".55" stop-color="#000" stop-opacity=".49"/>
      <stop offset=".64" stop-color="#000" stop-opacity="0"/>
    </linearGradient>
  </defs>
  <rect class="cls-11" x="-9" y="-23.98" width="2082" height="2752"/>
  <path class="cls-1" d="M-27.24,1420.43c69.08-121.86,183.66-238.53,330.08-257.22,73.38-9.97,143.1,6.04,216.29,19.92,42.66,8.01,87,14.91,130.14,14.28,52.72-.01,100.56-14.5,147.52-38.68,63.13-32.58,133.03-69.57,203.99-86.76,96.69-25.75,201.36-27.69,284.86,31.65,70.99,48.27,119.13,126.65,181.33,183.57,60.15,55.37,134.86,73.62,212.72,47.81,33.89-10.82,64.63-27.26,96.55-43.55,46.25-24.02,94.92-46.25,146.83-54.56,60.17-9.61,134.27-2.88,180.49,32.23,13.97,10.88,24.7,26.02,29.22,43.2,3.05,10.93,4.24,22.86,4.69,36.36.82,278.08,0,1080.65.28,1526.22-.18,43.44.14,76.23-.01,107.75.22,19.27-1.33,44.02-4.93,60.08-4.36,19.85-12.76,35.9-35.16,42.48-19.8,5.85-43.44,6.49-65.76,6.23-324.48-.46-1690.38.54-2006.02-.18-16.86-.52-30.74-2.22-41.7-5.37-40.23-10.8-39.64-52.16-42.31-93.23-.85-33.29.09-61.1-.25-101.97.94-392.41-.77-954.4.08-1352.5.27-27.74,2.81-48.53,10.68-72.78,5.29-15.6,12.27-30.42,20.33-44.86l.06-.1Z"/>
  <path class="cls-13" d="M19.12,1646.99c10.34-24.82,26.98-48.23,45.44-68.87,40.54-45.91,99.26-87.53,159.19-108.62,85.82-30.97,163.31-20.21,247.46,8.1,120.15,38.73,243.64,95,372.66,91.82,57.91-1.17,111.93-16.82,166.53-33.47,51.63-15.88,103.36-30.05,157.38-33.67,78.05-5.64,158.23,9.82,230.73,39.8,49.13,20.21,95.25,48.22,142.04,73.59,43.5,23.53,89.79,45.77,137.07,51.92,45.42,6.81,89.08-6.46,129.58-28.57,57.3-31.59,120.75-71.72,184.04-93.81,26.09-9.19,45.33-14.61,64.99-14.99,2.99,0,5.83.18,8.76.61,9.38,1.28,17.74,6.14,21.82,14.97,5.85,11.96,5.92,30.71,6.07,46.14-.64,222.33.56,799.14-.02,1093.2-.25,13.89-.07,38.48-4.56,43.99-3.24,5.25-8.2,6.57-14.59,7.15-248.75-2.19-1825.86-30.26-2103.33-34.45-20.22-.84-27.55-2.53-27.46-27.98-.03-3.08.04-6.64.16-10.36.11-3.26.28-6.9.47-10.67.16-3.23.37-6.75.58-10.35,17.4-268.83,39.44-603.79,58.04-889.48,2.68-35.75,3.6-74.97,16.91-105.87l.04-.1Z"/>
  <g>
    <path class="cls-6" d="M180.75,1923.13s-80.68-71.15-70.51-132.14c10.16-60.99,70.51-40.66,70.51-40.66,0,0,92.12,77.93,81.96,105.04-10.16,27.11-75.82,57.6-81.96,67.76Z"/>
    <path class="cls-6" d="M348.97,1811.31s-8.34-71.15-49-118.59c-40.66-47.44-91.58-81.32-113.56-54.21-21.97,27.11-31.88,43.8-24.81,76.24,8.56,39.25,101.09,140.61,101.09,140.61l86.27-44.05Z"/>
    <path class="cls-10" d="M224.09,1883.48c-11.57-7.81-21.98-17.28-30.94-27.98-9-10.74-16.49-22.76-22.22-35.55-3.22-7.2-5.84-14.66-7.87-22.29-.5-1.86-3.39-1.07-2.89.8,3.67,13.79,9.32,27.05,16.68,39.29,7.35,12.23,16.39,23.46,26.8,33.22,5.89,5.53,12.24,10.57,18.93,15.09,1.6,1.08,3.11-1.51,1.51-2.59h0Z"/>
    <path class="cls-10" d="M177.43,1834.47c10.54-9.93,16.85-23.93,17.39-38.4.07-1.93-2.93-1.93-3,0-.51,13.69-6.54,26.89-16.51,36.28-1.41,1.33.72,3.45,2.12,2.12h0Z"/>
    <path class="cls-10" d="M178.05,1841.41c-14.57-4.81-28.09-12.6-39.54-22.81-1.44-1.28-3.57.83-2.12,2.12,11.85,10.56,25.79,18.61,40.86,23.59,1.84.61,2.63-2.29.8-2.89h0Z"/>
    <path class="cls-10" d="M194.22,1862.07c7.87-5.22,13.89-12.8,17.22-21.63.68-1.81-2.22-2.59-2.89-.8-3.04,8.06-8.67,15.07-15.84,19.83-1.6,1.06-.1,3.66,1.51,2.59h0Z"/>
    <path class="cls-10" d="M205.11,1872.39c-13.57-.09-27.1-1.54-40.38-4.35-1.88-.4-2.69,2.49-.8,2.89,13.54,2.87,27.34,4.37,41.18,4.46,1.93.01,1.93-2.99,0-3h0Z"/>
    <path class="cls-10" d="M213.95,1686.67c12.22,19.3,25.17,38.14,38.83,56.45,6.77,9.07,13.7,18.01,20.8,26.82,6.35,7.87,12.82,15.67,18.25,24.22,5.91,9.3,10.54,19.58,11.31,30.7.13,1.92,3.13,1.93,3,0-1.42-20.44-14.44-37.23-26.83-52.57-14.34-17.77-28.18-35.9-41.22-54.65-7.42-10.67-14.61-21.5-21.56-32.49-1.03-1.63-3.63-.12-2.59,1.51h0Z"/>
    <path class="cls-10" d="M274.77,1763.55c-7.68-7.03-9.68-17.9-10.26-27.84-.36-6.05-.33-12.14-1.01-18.17-.67-5.96-2.24-11.47-4.6-16.97s-5.32-11.63-4.75-18.06c.17-1.92-2.83-1.91-3,0-.52,5.84,1.61,11.33,3.87,16.59,2.38,5.55,4.47,10.97,5.29,17,1.58,11.56.21,23.43,3.56,34.75,1.65,5.58,4.43,10.86,8.76,14.82,1.42,1.3,3.55-.81,2.12-2.12h0Z"/>
    <path class="cls-10" d="M281.69,1778.68c-12.62-3.72-25.58-7.52-36.52-15.11-4.68-3.25-8.96-7.22-12.3-11.85-3.44-4.77-5.62-10-6.73-15.76-.61-3.15-1.32-6.52-3.69-8.86-2.23-2.2-5.34-3.14-8.27-1.85-1.76.78-.24,3.36,1.51,2.59,2.46-1.08,5.01,1.31,6,3.33,1.33,2.7,1.49,5.86,2.23,8.74,1.36,5.3,3.95,10.22,7.27,14.54,7.33,9.54,17.76,15.77,28.77,20.2,6.82,2.74,13.88,4.83,20.92,6.91,1.86.55,2.65-2.35.8-2.89h0Z"/>
    <path class="cls-10" d="M294.46,1801.43c5.39-4.86,7.06-12,7.76-18.95s.36-14.45,2.18-21.43c.97-3.72,2.65-7.13,5.47-9.79,1.4-1.33-.72-3.45-2.12-2.12-10.94,10.37-6.2,27.44-9.78,40.55-1.01,3.69-2.76,7.03-5.62,9.62-1.44,1.3.69,3.41,2.12,2.12h0Z"/>
  </g>
  <path class="cls-7" d="M-66.08,2135.4s570.53-896.82,1128.19,52.75v554.02H-66.08v-606.77Z"/>
  <path class="cls-5" d="M7.65,2283.87s1007.54-625.33,2064,0v458.3H7.65v-458.3Z"/>
  <g>
    <path class="cls-6" d="M1834.84,2353.43s111.81-301.55,84.71-328.66c-27.11-27.11-33.88-44.05-67.76,0-33.88,44.05-142.44,299.24-142.44,299.24l125.5,29.42Z"/>
    <path class="cls-6" d="M1543.46,2302.61s77.93-450.63,189.74-467.58c111.81-16.94,84.71,233.79,84.71,233.79,0,0-47.44,230.4-64.38,260.89l-210.07-27.11Z"/>
    <path class="cls-10" d="M1656.51,2307.69c13.92-93.11,28.37-188.72,69.42-274.43,11.48-23.96,25.06-46.87,40.86-68.23,3.45-4.66-4.36-9.15-7.77-4.54-57.09,77.15-82.02,171.78-98.46,264.9-4.69,26.57-8.74,53.24-12.73,79.92-.85,5.67,7.82,8.11,8.68,2.39h0Z"/>
    <path class="cls-10" d="M1718.29,2040.63c-4.49-24.53-3.43-49.68,2.93-73.79,1.48-5.61-7.2-8-8.68-2.39-6.78,25.73-7.72,52.41-2.93,78.57,1.04,5.69,9.72,3.28,8.68-2.39h0Z"/>
    <path class="cls-10" d="M1692.22,2132.54c-13.03-21.09-27.83-45.28-23.95-71.18.85-5.67-7.82-8.11-8.68-2.39-4.31,28.73,10.28,54.53,24.86,78.12,3.04,4.92,10.83.4,7.77-4.54h0Z"/>
    <path class="cls-10" d="M1683.15,2173.06c31.39-16.04,60.83-35.52,87.98-58,4.47-3.7-1.93-10.03-6.36-6.36-26.55,21.98-55.47,40.91-86.16,56.59-5.16,2.64-.61,10.4,4.54,7.77h0Z"/>
    <path class="cls-10" d="M1665,2228.87c-8.09-13.59-15.55-27.82-18.78-43.43-3.57-17.26.16-34.31,4.13-51.15,1.33-5.63-7.35-8.04-8.68-2.39-4.21,17.9-7.89,35.87-4.46,54.24,3.17,16.95,11.28,32.59,20.02,47.27,2.96,4.97,10.74.45,7.77-4.54h0Z"/>
    <path class="cls-10" d="M1778.02,2330.49c39.75-55.41,70.6-117.09,91.1-182.13,5.86-18.59,10.84-37.45,15-56.49,1.23-5.65-7.44-8.06-8.68-2.39-14.43,66.19-39.32,129.89-73.73,188.25-9.75,16.54-20.27,32.62-31.47,48.22-3.38,4.71,4.42,9.21,7.77,4.54h0Z"/>
    <path class="cls-10" d="M1851.35,2189.09c-.93-19.22-.38-38.44,1.65-57.58.61-5.75-8.39-5.71-9,0-2.03,19.14-2.59,38.36-1.65,57.58.28,5.77,9.28,5.8,9,0h0Z"/>
    <path class="cls-10" d="M1829.86,2239.95c-.25-13.01.19-26,1.33-38.96.51-5.77-8.5-5.73-9,0-1.14,12.96-1.58,25.95-1.33,38.96.11,5.78,9.11,5.8,9,0h0Z"/>
    <path class="cls-10" d="M1807.73,2283.43c14.02,1.41,27.55-3.07,38.37-11.99,4.47-3.69-1.93-10.02-6.36-6.36-9.03,7.44-20.44,10.52-32,9.35-5.76-.58-5.72,8.42,0,9h0Z"/>
  </g>
  <path class="cls-8" d="M775.1,842.46c0-18.32-11.63-35.85-32.85-51.99-12.56-53.47-57.95-93.07-112.02-93.07-13.54,0-26.53,2.49-38.6,7.05,2.97-14.89,4.55-30.33,4.55-46.16,0-121.95-92.78-220.81-207.23-220.81-49.81,0-95.52,18.73-131.26,49.94-6.91-71.84-63.88-127.89-133.13-127.89-73.92,0-133.84,63.85-133.84,142.6,0,30.39,8.93,58.55,24.13,81.68-3.81-.04-7.62-.07-11.46-.07-183.27,0-331.83,46.27-331.83,103.34,0,38.11,66.24,71.39,164.81,89.31-34.75,19.81-54.36,42.27-54.36,66.06,0,80.12,222.31,145.06,496.55,145.06,139.99,0,266.44-16.92,356.7-44.15,23.32-1.06,44.85-9.5,62.59-23.17,48.92-22.47,77.26-49.14,77.26-77.74Z"/>
  <g>
    <polygon class="cls-9" points="109.27 2758.03 557.48 2181.61 539.33 2146.56 -.08 2703.02 -38.93 2769.44 49.16 2783.3 109.27 2758.03"/>
    <polygon class="cls-9" points="740.36 2077.39 539.33 2146.56 557.48 2181.61 740.36 2104.5 740.36 2077.39"/>
    <polygon class="cls-9" points="925.87 2108.73 740.36 2104.5 740.36 2077.39 930.95 2093.06 925.87 2108.73"/>
    <polygon class="cls-9" points="1259.61 2129.5 1101.86 2117.01 925.87 2108.73 930.95 2093.06 1061.2 2097.81 1130.84 2103.46 1259.61 2117.2 1259.61 2129.5"/>
    <polygon class="cls-9" points="1440.88 2156.17 1259.61 2129.5 1259.61 2117.2 1440.88 2146.56 1440.88 2156.17"/>
    <polygon class="cls-9" points="1578.1 2181.61 1440.88 2156.17 1440.88 2146.56 1578.1 2181.61"/>
    <polygon class="cls-9" points="557.48 2353.81 557.48 2181.61 539.33 2117.91 575.47 2111.28 575.47 2175.2 587.89 2335.74 557.48 2353.81"/>
    <polygon class="cls-9" points="700.83 2260.07 740.36 2104.5 738.39 2060.17 761.82 2060.17 753.93 2104.81 731.33 2260.07 700.83 2260.07"/>
    <polygon class="cls-9" points="903 2237.17 925.87 2108.73 930.95 2077.39 944.79 2077.39 936.88 2111.28 916.55 2237.17 903 2237.17"/>
    <polygon class="cls-9" points="1259.61 2237.17 1275.11 2131.78 1292.64 2096.7 1265.54 2093.06 1259.61 2129.5 1248.6 2237.17 1259.61 2237.17"/>
    <polygon class="cls-9" points="1422.53 2257.81 1458.67 2136.69 1440.88 2132.45 1422.53 2257.81"/>
  </g>
  <g>
    <path class="cls-6" d="M181.39,2824.4s10.16-395.29,30.58-461.33c21.04-68.06,59.97-102.99,101.56-114.67,45.67-12.82,125.36-6.78,166.02,57.6,40.66,64.38,44.05,284.61,30.49,342.21-13.55,57.6-30.49,196.27-30.49,196.27l-298.16-20.08Z"/>
    <path class="cls-6" d="M733.67,2844.47s162.63-223.83,132.14-298.14c-30.49-74.31-67.76-141.03-149.08-94.12-81.32,46.91-182.96,165.5-182.96,165.5,0,0-128.75,186.35-155.86,240.56-27.11,54.21,355.76-13.8,355.76-13.8Z"/>
    <path class="cls-10" d="M347.97,2824.45c-1.57-117.26-3.18-236.18,21.78-351.41,6.97-32.18,16.05-63.89,27.54-94.76,1.7-4.56-1.89-9.86-6.29-11.07-5.04-1.38-9.37,1.71-11.07,6.29-41.49,111.42-49.9,231.54-50.63,349.44-.21,33.84.21,67.68.66,101.52.16,11.57,18.16,11.61,18,0h0Z"/>
    <path class="cls-10" d="M356.7,2528.69c-17.94-46.95-30.79-95.7-38.31-145.4-.73-4.81-6.78-7.46-11.07-6.29-5.14,1.41-7.02,6.25-6.29,11.07,7.52,49.69,20.37,98.45,38.31,145.4,1.73,4.54,6.06,7.66,11.07,6.29,4.34-1.19,8.03-6.51,6.29-11.07h0Z"/>
    <path class="cls-10" d="M354.27,2599.88c4.53-7.62,12.96-13.46,19.41-19.41,7.96-7.33,15.93-14.67,23.89-22,15.69-14.44,31.38-28.89,47.07-43.33,8.54-7.86-4.21-20.57-12.73-12.73-16.17,14.89-32.34,29.78-48.51,44.67-7.96,7.33-15.93,14.67-23.89,22-7.29,6.71-15.65,13.09-20.78,21.71-5.93,9.98,9.62,19.05,15.54,9.08h0Z"/>
    <path class="cls-10" d="M342.98,2611.19c-8.83-2.53-17.62-5.19-26.36-8.01-7.76-2.5-15.76-4.81-23.02-8.58-13.56-7.06-21.45-19.92-29.13-32.61-5.99-9.9-21.57-.86-15.54,9.08,8.93,14.74,18.61,29.66,34.07,38.25,7.87,4.38,16.57,7.19,25.1,9.99,9.97,3.28,20.01,6.34,30.11,9.23,11.16,3.19,15.92-14.17,4.79-17.36h0Z"/>
    <path class="cls-10" d="M341.62,2712.13c41.11-11.48,79.1-31.94,111.51-59.68,3.7-3.16,3.25-9.48,0-12.73-3.66-3.66-9.02-3.17-12.73,0-30.02,25.69-65.54,44.43-103.57,55.05-11.14,3.11-6.41,20.48,4.79,17.36h0Z"/>
    <path class="cls-10" d="M336.73,2743.72c-35.25-18.17-70.51-36.33-105.76-54.5-10.28-5.3-19.4,10.23-9.08,15.54,35.25,18.17,70.51,36.33,105.76,54.5,10.28,5.3,19.4-10.23,9.08-15.54h0Z"/>
    <path class="cls-10" d="M535.85,2862.42c17.99-46.16,36.36-92.28,62.82-134.37,23.56-37.47,52.4-71.44,85.15-101.2,18.55-16.85,38.34-32.21,59.19-46.1,9.6-6.39.59-21.99-9.08-15.54-78.34,52.16-141.25,124.46-181.11,209.76-12.64,27.04-23.5,54.87-34.33,82.67-1.77,4.53,1.94,9.88,6.29,11.07,5.09,1.4,9.3-1.74,11.07-6.29h0Z"/>
    <path class="cls-10" d="M673.06,2625.24c7.15-23.02,15.63-45.6,25.57-67.57,2-4.43,1.27-9.68-3.23-12.31-3.86-2.26-10.3-1.22-12.31,3.23-10.58,23.39-19.77,47.35-27.39,71.87-3.44,11.09,13.93,15.83,17.36,4.79h0Z"/>
    <path class="cls-10" d="M611.11,2700.3c19.34,2.64,38.64,2.19,57.75-2,9.13-2,17.99-4.9,26.61-8.51,8.47-3.55,17.04-8.13,26.38-8.57,11.53-.54,11.6-18.55,0-18-18.51.87-34.79,11.91-52.5,16.46-17.34,4.46-35.69,5.68-53.45,3.25-4.81-.66-9.66,1.16-11.07,6.29-1.15,4.2,1.44,10.41,6.29,11.07h0Z"/>
    <path class="cls-10" d="M583.17,2745.77c-3.3-16.34-10.96-31.34-14.71-47.56-4.01-17.33-.89-35.16,2.17-52.38.85-4.78-1.29-9.7-6.29-11.07-4.35-1.2-10.21,1.47-11.07,6.29-3.45,19.39-6.64,38.93-2.89,58.54,3.35,17.51,11.9,33.49,15.43,50.96,2.29,11.35,19.65,6.54,17.36-4.79h0Z"/>
  </g>
  <path class="cls-12" d="M38.7,2765.62c27.68-15.81,51.05-39.66,73.74-61.72,23.89-23.22,46.7-47.53,68.45-72.77,2.51-2.91-1.72-7.17-4.24-4.24-21.34,24.77-43.71,48.64-67.11,71.47-11.53,11.25-23.31,22.26-35.32,32.98-12.05,10.75-24.48,21.06-38.54,29.1-3.35,1.92-.33,7.1,3.03,5.18h0Z"/>
  <path class="cls-12" d="M89.08,2763.73c21.97-44.7,76.4-62.44,95.2-109.49,1.43-3.59-4.37-5.14-5.79-1.6-18.45,46.18-72.87,63.85-94.6,108.06-1.7,3.45,3.48,6.5,5.18,3.03h0Z"/>
  <path class="cls-12" d="M463.69,2283.53c6.3-15.77,19.46-27.48,32.57-37.66,14.03-10.89,28.83-21.02,39.5-35.48,5.81-7.86,10.3-16.65,13.39-25.92.61-1.84-2.29-2.62-2.89-.8-2.76,8.28-6.71,16.13-11.71,23.29-5.1,7.29-11.36,13.63-18.12,19.39-13.25,11.28-28.22,20.54-40.26,33.22-6.44,6.78-11.89,14.44-15.37,23.16-.72,1.79,2.18,2.57,2.89.8h0Z"/>
  <path class="cls-12" d="M476.31,2275.65c5.76-14.1,13.44-27.37,23.44-38.89,5.14-5.91,10.71-11.42,16.34-16.86,5.49-5.29,10.96-10.62,16.72-15.62,6.3-5.48,13.02-10.49,20.44-14.35,2.57-1.34.3-5.22-2.27-3.89-13.7,7.12-24.88,18.01-35.92,28.6-11.54,11.07-22.74,22.44-31.21,36.11-4.67,7.53-8.54,15.5-11.89,23.7-.46,1.13.5,2.47,1.57,2.77,1.29.35,2.31-.44,2.77-1.57h0Z"/>
  <path class="cls-12" d="M583.36,2331.98c-.19-19.48-.86-38.96-2-58.41s-2.78-39.03-4.9-58.48c-1.18-10.88-2.52-21.75-4-32.6-.11-.81-1.14-1.23-1.85-1.05-.87.23-1.16,1.05-1.05,1.85,2.62,19.25,4.76,38.57,6.43,57.93,1.67,19.33,2.86,38.7,3.59,58.08.41,10.89.66,21.78.77,32.68.02,1.93,3.02,1.93,3,0h0Z"/>
  <path class="cls-12" d="M568.45,2117.38c.04,3.85-.38,7.67-1.27,11.42-.19.79.25,1.63,1.05,1.85s1.66-.26,1.85-1.05c.95-4,1.42-8.11,1.38-12.22-.02-1.93-3.02-1.93-3,0h0Z"/>
  <path class="cls-12" d="M570.9,2172.27c17.14-7.97,34.41-15.67,51.79-23.1,17.41-7.44,34.94-14.6,52.58-21.49,9.93-3.88,19.9-7.67,29.9-11.37,1.79-.66,1.02-3.57-.8-2.89-17.88,6.62-35.65,13.52-53.31,20.7-17.56,7.14-35,14.55-52.33,22.23-9.82,4.36-19.6,8.8-29.35,13.33-1.75.81-.23,3.4,1.51,2.59h0Z"/>
  <path class="cls-12" d="M737.9,2098.9c-6.51.94-12.92,2.47-19.15,4.6-1.36.46-.78,2.64.6,2.17,6.23-2.12,12.64-3.66,19.15-4.6,1.43-.21.82-2.37-.6-2.17h0Z"/>
  <path class="cls-12" d="M728.33,2257.09c2.52-17.29,3.96-34.71,4.31-52.18.02-.97-1.48-.97-1.5,0-.35,17.33-1.76,34.63-4.26,51.78-.14.94,1.31,1.35,1.45.4h0Z"/>
  <path class="cls-12" d="M751.35,2112.93c-6.73,28.54-11.92,57.39-15.87,86.44-.52,3.79-1.1,7.67-2.64,11.2-1.41,3.23-3.57,6.08-3.87,9.7-.08.96,1.42.96,1.5,0,.28-3.44,2.54-6.27,3.84-9.36s1.89-6.16,2.36-9.35c1.05-7.09,1.95-14.21,3.05-21.29,2.23-14.42,4.83-28.78,7.78-43.07,1.65-7.98,3.42-15.94,5.29-23.88.22-.94-1.22-1.34-1.45-.4h0Z"/>
  <path class="cls-12" d="M757.58,2063.74c.13,5.09-.09,10.18-.67,15.24-.05.48.7.47.75,0,.58-5.06.8-10.15.67-15.24-.01-.48-.76-.48-.75,0h0Z"/>
  <path class="cls-12" d="M741,2062.89c3.96-.31,7.92-.62,11.87-.93.48-.04.48-.79,0-.75-3.96.31-7.92.62-11.87.93-.48.04-.48.79,0,.75h0Z"/>
  <path class="cls-12" d="M760.75,2101.9c21.49-1.16,43-2.06,64.52-2.67,21.52-.61,43.04-.95,64.56-1.01,12.13-.03,24.27.02,36.4.16.97.01.97-1.49,0-1.5-21.52-.25-43.05-.22-64.57.08-21.52.3-43.04.88-64.55,1.74-12.12.48-24.24,1.05-36.36,1.71-.96.05-.97,1.55,0,1.5h0Z"/>
  <path class="cls-12" d="M808.78,2103.02c28.05.18,56.11-.08,84.15-.79,7.91-.2,15.81-.43,23.71-.7.96-.03.97-1.53,0-1.5-28.04.96-56.09,1.47-84.14,1.54-7.91.02-15.82,0-23.72-.05-.97,0-.97,1.49,0,1.5h0Z"/>
  <path class="cls-12" d="M914.42,2233.7c-.34-9.94.15-19.9,1.5-29.76.13-.94-1.32-1.35-1.45-.4-1.37,9.99-1.9,20.07-1.55,30.16.03.96,1.53.97,1.5,0h0Z"/>
  <path class="cls-12" d="M932.98,2109.79c1.32,5.78,1.06,11.74.22,17.57s-2.03,11.34-3.25,16.96c-2.44,11.18-5.33,22.27-8.67,33.22-1.89,6.2-3.93,12.36-6.1,18.47-.32.91,1.12,1.3,1.45.4,3.94-11.09,7.43-22.33,10.44-33.71,2.98-11.26,5.74-22.7,7.48-34.22.96-6.34,1.32-12.78-.12-19.08-.21-.94-1.66-.54-1.45.4h0Z"/>
  <path class="cls-12" d="M941.88,2079.45c-1.75,3.16-2.81,6.66-3.14,10.26-.04.48.71.48.75,0,.31-3.46,1.36-6.84,3.03-9.88.23-.42-.41-.8-.65-.38h0Z"/>
  <path class="cls-12" d="M940.93,2079.52c-2.26.17-4.52.35-6.78.52-.4.03-.75.32-.75.75,0,.38.34.78.75.75,2.26-.17,4.52-.35,6.78-.52.4-.03.75-.32.75-.75,0-.38-.34-.78-.75-.75h0Z"/>
  <path class="cls-12" d="M943.18,2107.51c21.12-.19,42.24-.39,63.36-.58,5.99-.06,11.97-.11,17.96-.17.96,0,.97-1.51,0-1.5-21.12.19-42.24.39-63.36.58-5.99.06-11.97.11-17.96.17-.96,0-.97,1.51,0,1.5h0Z"/>
  <path class="cls-12" d="M1023.32,2111.52c21.91,1.12,43.83,2.06,65.75,2.81,6.15.21,12.29.4,18.44.58.97.03.96-1.47,0-1.5-21.93-.64-43.85-1.47-65.76-2.49-6.14-.29-12.28-.59-18.43-.9-.96-.05-.96,1.45,0,1.5h0Z"/>
  <path class="cls-12" d="M1122.76,2118.14c9.18-.14,18.35-.16,27.53-.07,9.14.09,18.27.28,27.4.59,9.17.31,18.34.73,27.5,1.27s18.32,1.18,27.46,1.94c9.1.75,18.2,1.62,27.28,2.59,1.15.12,2.3.25,3.45.38.48.05.48-.7,0-.75-9.12-1.01-18.26-1.9-27.4-2.69-9.1-.78-18.21-1.45-27.33-2.01-9.16-.56-18.33-1.01-27.5-1.35-9.17-.34-18.35-.56-27.52-.68-9.14-.11-18.27-.12-27.41,0-1.16.01-2.31.03-3.47.05-.48,0-.48.76,0,.75h0Z"/>
  <path class="cls-12" d="M1285.66,2100.93c-1.81,5.04-3.62,10.08-5.43,15.12-.16.46.56.65.72.2,1.81-5.04,3.62-10.08,5.43-15.12.16-.46-.56-.65-.72-.2h0Z"/>
  <path class="cls-12" d="M1285.46,2101.39c-5.45-.84-10.95-1.29-16.46-1.35-.19,0-.4.17-.38.38.22,2.08,2.93,2.03,4.48,2.08,2.78.1,5.55.19,8.33.29.48.02.48-.73,0-.75-2.45-.09-4.9-.17-7.35-.26-1-.03-2.06.02-3.05-.17-.65-.13-1.57-.41-1.66-1.19l-.38.38c5.44.06,10.88.5,16.26,1.32.47.07.68-.65.2-.72h0Z"/>
  <path class="cls-12" d="M1270.68,2142.8c-.01,8.34-1.01,16.66-3,24.76-.56,2.27-1.19,4.52-1.9,6.75-.15.46.58.66.72.2,2.52-7.97,4.1-16.24,4.68-24.58.16-2.37.24-4.75.25-7.13,0-.48-.75-.48-.75,0h0Z"/>
  <path class="cls-12" d="M1266.31,2159.74c.66,8.52.07,17.13-1.76,25.48-.52,2.38-1.15,4.74-1.86,7.07-.14.46.58.66.72.2,2.53-8.23,3.86-16.83,3.91-25.44.01-2.44-.08-4.88-.26-7.31-.04-.48-.79-.48-.75,0h0Z"/>
  <path class="cls-12" d="M1263.87,2183.49c-.43,6.66-.86,13.36-2.37,19.89-.76,3.27-1.82,6.47-2.54,9.75-.7,3.16-1.02,6.39-1.13,9.63-.12,3.78.05,7.55.23,11.33.02.44.59.49.74.1.33-.87.65-1.75.98-2.62.17-.45-.56-.65-.72-.2-.33.87-.65,1.75-.98,2.62l.74.1c-.31-6.68-.62-13.46.72-20.05.67-3.29,1.73-6.49,2.53-9.75s1.28-6.33,1.65-9.54c.43-3.74.68-7.49.92-11.25.03-.48-.72-.48-.75,0h0Z"/>
  <path class="cls-12" d="M1270.84,2128.68c.4,4.88.06,9.81-1.04,14.58-.11.47.61.67.72.2,1.11-4.84,1.48-9.84,1.07-14.78-.04-.48-.79-.48-.75,0h0Z"/>
  <path class="cls-12" d="M1283.16,2131.7c9.5-.74,19.04-1.05,28.57-.92,9.53.13,19.05.69,28.53,1.68,5.42.57,10.82,1.28,16.2,2.13.47.07.68-.65.2-.72-9.45-1.49-18.96-2.56-28.5-3.19s-19.21-.82-28.82-.57c-5.4.14-10.79.42-16.17.84-.48.04-.48.79,0,.75h0Z"/>
  <path class="cls-12" d="M1317.01,2135.96c12.7.33,25.38,1.05,38.04,2.16,12.7,1.11,25.37,2.61,37.98,4.51,7.05,1.06,14.08,2.24,21.09,3.54.47.09.67-.64.2-.72-12.52-2.32-25.11-4.26-37.75-5.81-12.65-1.55-25.34-2.72-38.06-3.49-7.16-.44-14.32-.74-21.49-.93-.48-.01-.48.74,0,.75h0Z"/>
  <path class="cls-12" d="M1375.75,2143.5c10.76.69,21.52,1.56,32.25,2.63,10.74,1.07,21.46,2.32,32.16,3.76,6,.81,11.99,1.68,17.97,2.61.47.07.68-.65.2-.72-10.65-1.65-21.33-3.12-32.03-4.4-10.75-1.28-21.52-2.38-32.31-3.28-6.07-.51-12.15-.96-18.23-1.34-.48-.03-.48.72,0,.75h0Z"/>
  <path class="cls-12" d="M1455.1,2138.85c-.26,3.21-.93,6.38-1.96,9.43-.16.46.57.65.72.2,1.06-3.12,1.72-6.35,1.99-9.63.04-.48-.71-.48-.75,0h0Z"/>
  <path class="cls-12" d="M1453.23,2140.08c-4.21-1.34-8.68-1.83-13.09-1.43-.25.02-.51.31-.32.56,1.35,1.78,3.68,3.11,5.91,2.15.94-.41,1.75-1.18,2.07-2.17.32-.97.03-2-.65-2.74-.76-.83-1.93-1.19-2.98-.72-.33.15-.17.74.19.7,1.77-.21,3.55-.02,5.24.56.46.16.65-.57.2-.72-1.74-.6-3.61-.8-5.44-.58l.19.7c.69-.31,1.47,0,1.98.51.55.55.79,1.3.56,2.06-.24.79-.91,1.4-1.65,1.73-.8.35-1.68.32-2.5.03-.99-.34-1.84-1.06-2.47-1.88l-.32.56c4.34-.4,8.73.08,12.89,1.4.46.15.66-.58.2-.72h0Z"/>
  <path class="cls-12" d="M1448.25,2160.78c-2.54,8.45-4.99,16.92-7.36,25.42-2.37,8.5-4.65,17.02-6.85,25.57-1.25,4.85-2.46,9.7-3.66,14.57-.11.47.61.67.72.2,2.1-8.57,4.28-17.12,6.56-25.64,2.27-8.53,4.63-17.03,7.07-25.5,1.39-4.81,2.8-9.61,4.24-14.41.14-.46-.58-.66-.72-.2h0Z"/>
  <path class="cls-12" d="M1459.87,2156.54c9.6.3,19.19,1.13,28.69,2.51,2.67.39,5.33.82,7.98,1.29.47.08.67-.64.2-.72-9.48-1.68-19.06-2.83-28.67-3.44-2.73-.17-5.47-.3-8.2-.38-.48-.02-.48.74,0,.75h0Z"/>
  <path class="cls-12" d="M1472.9,2160.33c8.06.94,16.12,1.88,24.18,2.82,3.95.46,7.9.92,11.85,1.38s7.94.93,11.83,1.86c4.18,1,8.24,2.45,12.11,4.3.43.21.81-.44.38-.65-3.44-1.65-7.03-2.99-10.72-3.98-3.74-1-7.56-1.57-11.4-2.03-8.14-.97-16.27-1.9-24.41-2.85-4.61-.54-9.21-1.07-13.82-1.61-.48-.06-.47.69,0,.75h0Z"/>
  <path class="cls-12" d="M1542.33,2171.68c-13.07-2.85-26.27-5.11-39.54-6.78-3.77-.47-7.54-.9-11.31-1.28-.48-.05-.48.7,0,.75,13.29,1.33,26.51,3.25,39.62,5.77,3.69.71,7.37,1.46,11.03,2.26.47.1.67-.62.2-.72h0Z"/>
  <path class="cls-12" d="M1124.53,2114.37c10.56,3.53,21.37,6.31,32.32,8.32,10.91,2,21.95,3.23,33.03,3.68,6.23.25,12.48.26,18.71.02.48-.02.48-.77,0-.75-11.05.43-22.12.08-33.12-1.05-11.04-1.13-22.01-3.04-32.78-5.72-6.05-1.5-12.05-3.25-17.96-5.23-.46-.15-.66.57-.2.72h0Z"/>
  <path class="cls-12" d="M1224.4,2121.18c-11.55-.23-23.09-.75-34.62-1.57-11.52-.82-23.03-1.93-34.49-3.33-6.5-.79-12.98-1.68-19.45-2.66-.47-.07-.68.65-.2.72,11.41,1.73,22.87,3.17,34.36,4.32,11.58,1.16,23.18,2.02,34.8,2.59,6.53.32,13.06.54,19.6.67.48,0,.48-.74,0-.75h0Z"/>
  <path class="cls-12" d="M1062.32,2114.45c-29.77-3.41-59.54-6.83-89.31-10.24-8.44-.97-16.87-1.94-25.31-2.9-.96-.11-.95,1.39,0,1.5,29.77,3.41,59.54,6.83,89.31,10.24,8.44.97,16.87,1.94,25.31,2.9.96.11.95-1.39,0-1.5h0Z"/>
  <path class="cls-12" d="M936.24,2079.89c-1.77.15-3.66.38-5.05,1.6-1.16,1.02-1.45,2.69-.84,4.08s2.04,1.9,3.37,1.28c1.07-.5,1.71-1.64,2.31-2.6.16-.26.33-.53.51-.78.04-.06.09-.12.13-.18,0,0,.07-.09.02-.02-.06.08.06-.07.06-.07.09-.11.18-.21.28-.31.05-.05.1-.09.15-.13.12-.11-.06.02.04-.03.05-.03.11-.07.16-.1.07-.04.17-.08.03-.03.07-.02.13-.04.2-.06.02,0,.05,0,.08-.02.09-.03-.14,0-.04,0,.06,0,.13,0,.19,0,.03,0,.06,0,.08,0,.11,0-.19-.03,0,0,.4.07.81-.11.92-.52.1-.36-.12-.85-.52-.92-1.14-.21-2.06.33-2.75,1.21-.35.44-.64.91-.94,1.39-.14.22-.27.44-.42.66-.06.09-.12.18-.19.27-.04.05-.08.11-.12.16.1-.13-.06.08-.08.1-.15.17-.3.33-.47.48-.15.13.13-.08-.03.02-.05.03-.1.06-.15.09-.03.02-.07.04-.1.06-.03.02-.07.03-.1.05.09-.04.1-.04.02-.01-.11.03-.22.07-.33.08.2-.03-.12,0-.18,0-.21-.01.13.04-.07-.01-.06-.02-.13-.03-.19-.06.16.06-.03-.02-.05-.04-.04-.02-.07-.05-.11-.07.06.05.07.05.03.02-.04-.04-.08-.07-.12-.11-.02-.01-.14-.18-.05-.05-.08-.11-.15-.23-.21-.35-.1-.2.02.08-.02-.05-.02-.06-.04-.11-.06-.17-.02-.07-.04-.14-.05-.21-.01-.05-.02-.1-.03-.14,0,.08,0,.07,0-.02-.01-.12-.01-.25-.01-.37,0-.07,0-.15.01-.22-.02.16.02-.08.02-.09.07-.35.1-.41.28-.7.09-.15.45-.49.72-.66.34-.21.69-.37,1.07-.49.85-.27,1.73-.36,2.61-.44.4-.03.75-.32.75-.75,0-.38-.34-.79-.75-.75h0Z"/>
  <path class="cls-12" d="M943.57,2081.65c-2.84,2.89-4.79,6.61-5.45,10.62s.76,8.63-1.45,12.2c-.51.82.79,1.58,1.3.76,2.12-3.43,1.14-7.5,1.45-11.3.35-4.22,2.26-8.21,5.22-11.21.68-.69-.38-1.75-1.06-1.06h0Z"/>
  <path class="cls-12" d="M755.28,2069.42c-1.51,13.89-3.74,27.69-6.66,41.36-.2.94,1.2,1.34,1.45.4.23-.88.47-1.75.7-2.63.25-.93-1.2-1.33-1.45-.4-.23.88-.47,1.75-.7,2.63l1.45.4c2.95-13.79,5.19-27.73,6.71-41.75.1-.96-1.4-.95-1.5,0h0Z"/>
  <path class="cls-12" d="M755.88,2063.17v9.04c0,.48.75.48.75,0v-9.04c0-.48-.75-.48-.75,0h0Z"/>
  <path class="cls-12" d="M756.82,2064.67c-3.11,0-6.22.02-9.33.03-1.25,0-2.68-.19-3.9.2-.9.29-1.82.99-1.61,2.05.22,1.13,1.43,1.52,2.42,1.75,1.25.29,2.54.31,3.81.1,1.91-.32,5.24-1.6,4.93-4.07-.19-1.49-1.69-1.78-2.93-1.9-1.7-.17-3.39-.34-5.09-.51-.84-.08-1.02,1.3-.2,1.47,1.08.22,2.16.44,3.24.66.94.19,1.35-1.25.4-1.45-1.08-.22-2.16-.44-3.24-.66l-.2,1.47c1.43.14,2.86.29,4.29.43.78.08,2.87.02,2.03,1.33-.61.94-1.89,1.39-2.93,1.64-1.21.3-2.49.32-3.7.04-.24-.06-1.28-.22-1.34-.55-.05-.26.72-.42.89-.45.52-.1,1.09-.05,1.62-.05h2.23c2.88-.01,5.76-.02,8.64-.03.97,0,.97-1.5,0-1.5h0Z"/>
  <path class="cls-12" d="M737.72,2177.01c-7.41,13.48-15,27.34-17.91,42.61-.31,1.64-2.06,7.99,1.56,7.44.95-.14.55-1.59-.4-1.45-.83.13.24-5.36.33-5.81.4-2.05.88-4.09,1.44-6.1,1.19-4.26,2.7-8.43,4.43-12.51,3.42-8.06,7.63-15.76,11.85-23.42.47-.85-.83-1.6-1.3-.76h0Z"/>
  <path class="cls-2" d="M315.25,2447.81c3.78,21.2,11.69,41.65,23.13,59.89,3.23,5.14,6.75,10.09,10.5,14.86,1.19,1.52,3.3-.62,2.12-2.12-13.04-16.55-22.84-35.65-28.75-55.87-1.69-5.77-3.05-11.63-4.11-17.55-.34-1.9-3.23-1.09-2.89.8h0Z"/>
  <path class="cls-2" d="M341.92,2800.7c-1.28-26.09-1.87-52.2-1.78-78.32.09-26.12.87-52.23,2.34-78.3,1.46-25.99,3.6-51.95,6.41-77.83,2.82-25.91,6.32-51.75,10.51-77.47,3.95-24.28,8.52-48.67,17.31-71.74,1.11-2.91,2.29-5.8,3.54-8.66.77-1.75-1.82-3.28-2.59-1.51-9.97,22.75-15.35,47.07-19.54,71.45-4.41,25.61-8.02,51.38-11.02,77.19-3.02,26.02-5.36,52.13-7.01,78.27-1.65,26.15-2.61,52.34-2.88,78.53s.15,52.4,1.26,78.57c.14,3.27.29,6.54.45,9.81.09,1.92,3.09,1.93,3,0h0Z"/>
  <path class="cls-2" d="M347.95,2617.78c4.77-13.09,11.41-25.46,19.57-36.74,8.16-11.28,17.89-21.44,28.78-30.1,6.18-4.92,12.77-9.32,19.66-13.2,1.68-.95.17-3.54-1.51-2.59-12.41,6.99-23.83,15.74-33.84,25.86-10.01,10.12-18.66,21.63-25.57,34.08-3.89,7.02-7.22,14.35-9.97,21.9-.66,1.82,2.24,2.6,2.89.8h0Z"/>
  <path class="cls-2" d="M277.3,2588.42c11.11,12.57,25.06,22.55,40.51,29.08,4.39,1.85,8.89,3.43,13.49,4.71,1.86.52,2.66-2.37.8-2.89-15.78-4.4-30.53-12.37-42.84-23.2-3.48-3.06-6.76-6.35-9.83-9.82-1.28-1.45-3.4.68-2.12,2.12h0Z"/>
  <path class="cls-2" d="M342.15,2715.11c10.25-12.45,24.53-20.45,38.99-27.06,7.63-3.49,15.5-6.49,22.91-10.44,7.73-4.12,14.23-9.54,20.21-15.9,7.29-7.76,14.4-15.7,21.59-23.56,1.3-1.42-.81-3.55-2.12-2.12-6.41,7.01-12.81,14.03-19.24,21.03-3,3.27-6.05,6.52-9.39,9.45-3.26,2.87-6.84,5.32-10.62,7.45-7.35,4.15-15.27,7.19-22.96,10.64-7.26,3.26-14.42,6.78-21.16,11.02-7.58,4.76-14.62,10.44-20.33,17.36-1.22,1.48.89,3.61,2.12,2.12h0Z"/>
  <path class="cls-2" d="M336.97,2771.42c.63-5.68.93-11.4.86-17.11-.06-5.01-.54-10.01-3.47-14.24-4.89-7.06-13.49-11.12-21.12-14.49-14.56-6.44-31.77-10.72-42.41-23.41-7.04-8.4-9.31-19.54-9.97-30.2-.12-1.92-3.12-1.93-3,0,.59,9.7,2.4,19.68,7.68,28.01,4.37,6.9,10.84,12.03,17.94,15.92,7.28,3.99,15.11,6.83,22.78,9.96,3.82,1.56,7.62,3.19,11.3,5.07s7.72,4.15,10.95,7.05c1.83,1.65,3.44,3.54,4.54,5.76,1.3,2.63,1.63,5.59,1.74,8.49.23,6.4-.1,12.84-.81,19.2-.21,1.92,2.79,1.9,3,0h0Z"/>
  <path class="cls-2" d="M303.38,2383.91c.42,10.59,2.54,21.06,6.32,30.96.68,1.79,3.58,1.01,2.89-.8-3.69-9.66-5.8-19.83-6.21-30.16-.08-1.92-3.08-1.93-3,0h0Z"/>
  <path class="cls-2" d="M694.55,2548.65c-9.46,5.91-16.03,15.1-20.78,25.03-5.27,11.01-8.7,22.83-12.45,34.42-2.55,7.88-5.11,15.76-7.66,23.64-.6,1.84,2.3,2.63,2.89.8,4.27-13.17,8.42-26.39,12.83-39.52,3.46-10.3,7.41-20.66,13.82-29.53,3.49-4.84,7.8-9.08,12.87-12.25,1.63-1.02.13-3.62-1.51-2.59h0Z"/>
  <path class="cls-2" d="M562.91,2780.79c4.15-16.58,10.46-32.55,18.45-47.65,8.02-15.16,17.66-29.46,28.44-42.8,11.07-13.71,23.33-26.41,36.35-38.27,13.88-12.64,28.6-24.33,43.75-35.4,15.17-11.08,30.77-21.56,46.5-31.84,1.91-1.25,3.82-2.49,5.73-3.73,1.61-1.05.11-3.65-1.51-2.59-15.88,10.32-31.66,20.79-47.05,31.83-15.34,11-30.29,22.57-44.45,35.06-13.5,11.91-26.28,24.67-37.85,38.47-11.1,13.24-21.15,27.4-29.61,42.48-8.41,14.98-15.27,30.89-19.97,47.43-.59,2.07-1.14,4.14-1.66,6.22-.47,1.87,2.42,2.67,2.89.8h0Z"/>
  <path class="cls-2" d="M578.93,2751.86c-5.71-13.66-7.19-28.8-9.24-43.34-2.12-15.1-3.85-30.33-3.51-45.6.19-8.63,1.07-17.22,2.9-25.66.41-1.88-2.48-2.69-2.89-.8-3.28,15.14-3.56,30.7-2.42,46.09,1.13,15.23,3.36,30.44,5.82,45.5,1.37,8.38,3.17,16.73,6.46,24.59.31.75.99,1.27,1.85,1.05.71-.19,1.36-1.1,1.05-1.85h0Z"/>
  <path class="cls-2" d="M606.56,2711.34c14.59-7.65,30.76-11.34,46.69-15.05,14.94-3.48,29.99-7.12,43.81-13.95,7.49-3.7,14.5-8.38,20.51-14.21,1.39-1.35-.73-3.47-2.12-2.12-10.74,10.42-24.6,16.69-38.73,21.09-15.19,4.73-30.92,7.39-46.2,11.78-8.76,2.51-17.38,5.63-25.46,9.87-1.71.9-.2,3.49,1.51,2.59h0Z"/>
  <path class="cls-2" d="M570.11,2796.61c23-5.64,46.13-11.42,67.9-20.91,10.67-4.65,20.96-10.21,30.41-17.02,10.03-7.22,18.5-16.21,28.14-23.89,10.41-8.3,23.96-15.24,37.62-12.02,1.88.44,2.68-2.45.8-2.89-11.93-2.81-24.21,1.47-34.13,8.08-10.53,7.01-19.07,16.47-28.92,24.34-18.58,14.85-40.91,24.07-63.47,30.99-12.91,3.96-26.03,7.22-39.15,10.43-1.87.46-1.08,3.35.8,2.89h0Z"/>
  <path class="cls-2" d="M1545.9,2311.73c.73-4.98-1.31-9.81-5.55-12.59-.58,1.37-1.16,2.74-1.73,4.11,4.82,1.56,9.64,3.12,14.45,4.67,2.09.68,3.88-2.28,2.19-3.76-3.2-2.81-6.41-5.61-9.61-8.42l-2.19,3.76c9.83,2.02,19.28,5.48,28.06,10.34,1.82,1.01,4.48-1.16,3.08-3.08-1.54-2.1-3.08-4.2-4.62-6.31-1.68-2.3-5.26-.34-3.89,2.27,1.55,2.94,3.48,6.05,6.43,7.77,2.53,1.48,6.04,1.81,8.21-.46,1.64-1.72,2.25-4.46,1.7-6.75-.62-2.57-2.94-4.14-5.54-3.37-1.76.52-2.02,2.45-.99,3.76,6.88,8.75,20.85,9.68,29.15,2.54.92-.79.81-2.37,0-3.18-.93-.93-2.24-.78-3.18,0-2.33,1.94-4.67,3.87-7,5.81-1.28,1.06-.58,3.43.99,3.76,9.27,1.93,18.95,1.34,27.87-1.88l-2.54-1.03c3.43,4.58,7.64,8.42,12.6,11.31.82.48,2.07.39,2.73-.35,2.25-2.53,4.5-5.07,6.75-7.6h-3.18c2.83,3.24,5.66,6.48,8.49,9.72.49.56,1.49.83,2.19.58,4.86-1.76,8.92-4.93,11.77-9.24h-3.89c1.61,2.6,3.21,5.2,4.82,7.8.81,1.32,2.41,1.39,3.53.46,2.6-2.17,5.2-4.33,7.8-6.5-1.18-.15-2.36-.3-3.53-.46,2.5,4.3,5.63,9.32,10.82,10.56,4.48,1.07,9.55-.69,11.15-5.26-1.47-.2-2.95-.4-4.42-.6-.45,6.1,8.23,9.72,12.33,5.28l-2.73.35c7.87,5.01,18.52,4.95,26.32-.18l-3.31-2.54c-1.42,3.44-2.84,6.87-4.26,10.31-.6,1.45.88,2.77,2.17,2.85,8.88.54,17.79-1.56,25.53-5.94,2.25-1.27.72-4.71-1.73-4.11-3.03.74-4.22,4-3.58,6.82.75,3.37,3.9,4.97,7.09,5.33,3.71.42,7.64-.25,11.35-.51,4.22-.3,8.44-.59,12.66-.89l-2.17-1.65c1.14,4.54,3.83,8.37,7.57,11.15.59.44,1.68.42,2.27,0,3.58-2.52,7.16-5.04,10.74-7.56h-2.27c2.92,2.02,5.3,4.92,6.65,8.21.51,1.24,1.97,2.24,3.31,1.34,3.21-2.16,6.41-4.31,9.62-6.47l-3.39-1.94c.5,4.43,3.87,7.67,8.18,8.62,4.23.93,8.83-.29,11.17-4.15h-3.89c2.08,2.86,4.16,5.71,6.24,8.57.75,1.03,1.9,1.41,3.08.81,8.78-4.48,19.62-4.45,28.38.08,2.56,1.32,4.78-2.4,2.27-3.89-8.81-5.2-17.62-10.4-26.43-15.6-2.5-1.48-4.77,2.41-2.27,3.89,8.81,5.2,17.62,10.4,26.43,15.6.76-1.3,1.51-2.59,2.27-3.89-10.25-5.3-22.64-5.32-32.92-.08,1.03.27,2.05.54,3.08.81-2.08-2.86-4.16-5.71-6.24-8.57-.98-1.34-2.95-1.55-3.89,0-1.22,2.02-3.81,2.58-6.09,2.08-1.27-.28-2.41-.78-3.24-1.51-.91-.8-1.52-1.79-1.63-2.77-.17-1.55-1.82-2.99-3.39-1.94-3.21,2.16-6.41,4.31-9.62,6.47,1.1.45,2.2.9,3.31,1.34-1.83-4.46-4.74-8.15-8.72-10.9-.61-.42-1.66-.43-2.27,0-3.58,2.52-7.16,5.04-10.74,7.56h2.27c-2.78-2.08-4.66-5.13-5.5-8.46-.23-.9-1.21-1.72-2.17-1.65-6.57.46-13.15.93-19.72,1.39-1.94.13-5.09.62-6.6-.99-.38-.4-.51-.96-.46-1.61,0-.1.13-.49.17-.55.13-.21.02-.07.29-.13l-1.73-4.11c-7.08,4.01-15.14,5.82-23.25,5.32.72.95,1.45,1.9,2.17,2.85,1.42-3.44,2.84-6.87,4.26-10.31.76-1.83-1.76-3.56-3.31-2.54-6.53,4.3-15.17,4.38-21.77.18-.81-.52-2.07-.36-2.73.35-.76.82-1.75.88-2.81.45-.6-.25-1.11-.61-1.44-1.02-.43-.54-.45-.85-.4-1.52.08-1.1-.92-2.09-1.95-2.21-1.15-.14-2.09.53-2.47,1.61-.85,2.4-4.4,2.69-6.49,1.86-3.46-1.37-5.5-5.21-7.26-8.23-.78-1.34-2.44-1.37-3.53-.46-2.6,2.17-5.2,4.33-7.8,6.5,1.18.15,2.36.3,3.53.46-1.61-2.6-3.21-5.2-4.82-7.8-.92-1.49-2.95-1.41-3.89,0-2.17,3.28-5.38,5.83-9.08,7.17.73.19,1.46.39,2.19.58-2.83-3.24-5.66-6.48-8.49-9.72-.77-.88-2.41-.86-3.18,0-2.25,2.53-4.5,5.07-6.75,7.6l2.73-.35c-4.25-2.48-8.02-5.75-10.98-9.69-.57-.76-1.54-1.39-2.54-1.03-8.16,2.94-16.98,3.65-25.48,1.88.33,1.25.66,2.51.99,3.76,2.33-1.94,4.67-3.87,7-5.81l-3.18-3.18c-6.61,5.68-17.52,4.17-22.79-2.54-.33,1.25-.66,2.51-.99,3.76.1-.03.52-.25.3-.08-.07.05.16.12-.2,0-.13-.04-.36-.17-.1-.04-.66-.34.14.08-.16-.16-.23-.18.07.07.1.19-.09-.3-.05-.19,0,.04.04.15.08.3.11.46-.04-.22-.02-.24-.01,0,0,.16-.05,1.06.01.65-.05.35-.14.7-.27,1.03.13-.34-.19.34-.29.49.06-.09-.28.27-.17.19-.05.04-.39.19-.17.12.27-.09-.26.07-.32.07.36-.04-.66-.06-.87-.1-.85-.17-1.61-.66-2.25-1.23-1.66-1.5-2.78-3.46-3.81-5.42-1.3.76-2.59,1.51-3.89,2.27,1.54,2.1,3.08,4.2,4.62,6.31l3.08-3.08c-9.11-5.04-18.94-8.7-29.14-10.8-2.03-.42-4,2.17-2.19,3.76,3.2,2.81,6.41,5.61,9.61,8.42.73-1.25,1.46-2.51,2.19-3.76-4.82-1.56-9.64-3.12-14.45-4.67-2.52-.81-3.79,2.76-1.73,4.11,2.4,1.57,3.91,4.63,3.48,7.51-.18,1.2.3,2.42,1.57,2.77,1.06.29,2.59-.36,2.77-1.57h0Z"/>
  <path class="cls-2" d="M1549.28,2291.44c-4.2-1.17-8.39-2.33-12.59-3.5-1.26-.35-3.04.69-2.85,2.17.66,5.02,1.32,10.03,1.99,15.05,1.47-.2,2.95-.4,4.42-.6-2.23-5.36-5.3-11.35-11.9-11.6-2.86-.11-5.41,1.2-6.95,3.6-.32.5-.74,1.9-1.46,1.7-.99-.28-1.78-2.11-2.16-2.92-.93-1.95-4.46-1.07-4.19,1.14s.66,4.58,2.61,5.97c1.51,1.08,3.63,1.28,5.22.24,1.84-1.21,2.08-3.67.66-5.3-1.27-1.45-3.75-1.96-5.09-.29-.76.95-.93,2.26,0,3.18.79.79,2.42.95,3.18,0-.13.16-1.11.4-1.4.13-.2-.18-.11-.97-.07-1.22.01-.08.26-.28.26-.3-.02-.05-.23-.13-.25-.18-.09-.18-.2-.35-.28-.53-.2-.52-.28-1.14-.35-1.7-1.4.38-2.8.76-4.19,1.14,1.16,2.43,3.36,5.3,6.36,5.21,1.62-.05,2.97-.94,3.91-2.21.65-.88,1.04-2.08,1.99-2.68,1.66-1.05,4.06-.34,5.46.82,2.13,1.76,3.26,4.52,4.29,7.01.43,1.04,1.27,1.79,2.47,1.61.99-.15,2.1-1.09,1.95-2.21-.66-5.02-1.32-10.03-1.99-15.05-.95.72-1.9,1.45-2.85,2.17,4.2,1.17,8.39,2.33,12.59,3.5,2.79.78,3.99-3.56,1.2-4.34h0Z"/>
  <path class="cls-2" d="M1845.57,2347.02c2.14-.84,4.27-1.68,6.41-2.53l-2.85-2.17c.3,4.45.59,8.9.89,13.35.06.96.65,1.94,1.65,2.17.91.21,2.12-.11,2.54-1.03,1.81-3.97,4.18-7.73,6.89-10.91.79-.92.91-2.27,0-3.18-.81-.81-2.39-.93-3.18,0-3.06,3.58-5.64,7.53-7.6,11.82,1.4.38,2.8.76,4.19,1.14-.3-4.45-.59-8.9-.89-13.35-.09-1.31-1.39-2.74-2.85-2.17-2.14.84-4.27,1.68-6.41,2.53-1.09.43-1.97,1.53-1.57,2.77.34,1.06,1.6,2.03,2.77,1.57h0Z"/>
  <circle class="cls-4" cx="1255.28" cy="678.3" r="154.16"/>
  <path class="cls-8" d="M1447.06,832.22c0-26.2-33.37-47.44-74.54-47.44-16.8,0-32.3,3.54-44.76,9.51.47-3.12.72-6.29.72-9.51,0-43.04-43.2-77.93-96.48-77.93-18.11,0-35.05,4.03-49.53,11.05-11.68-53.31-49.59-92.36-94.55-92.36-54.27,0-98.26,56.89-98.26,127.06,0,28.29,7.16,54.42,19.25,75.54-41.33,7.36-66.68,17.3-66.68,28.24,0,22.7,109.14,41.1,243.78,41.1,89.64,0,167.96-8.16,210.31-20.31,29.5-6.32,50.75-24.05,50.75-44.95Z"/>
  <path class="cls-3" d="M1238.45,664.39l37.49,28.36c7.74,5.85,14.13,14.1,18.31,23.64l837.23,1908.03v-1017.81l-851.28-941.52,38.72,5.64c7.99,1.16,15.33,4.76,21.03,10.29l791.53,768.79V-64.64H38.04v1752.43L1144.37,583.08l42.35,20.33L38.04,1897.36v843.46h1991.54L1238.45,664.39Z"/>
</svg>