<?xml version="1.0" encoding="UTF-8"?>
<svg id="Camada_3" data-name="Camada 3" xmlns="http://www.w3.org/2000/svg" viewBox="0 0 1231.79 1878.39">
  <defs>
    <style>
      .cls-1 {
        fill: #380004;
        stroke-width: 3px;
      }

      .cls-1, .cls-2 {
        stroke: #7c1d00;
        stroke-miterlimit: 10;
      }

      .cls-3 {
        fill: #7c1d00;
      }

      .cls-2 {
        fill: #c1272d;
        stroke-width: 5px;
      }

      .cls-4 {
        opacity: .16;
      }

      .cls-5 {
        fill: #00842c;
      }

      .cls-6 {
        fill: #421e00;
      }

      .cls-7 {
        fill: #025116;
      }
    </style>
  </defs>
  <g>
    <path class="cls-6" d="M762.46,896.23c2.89-1.38,6.33-.79,8.59,1.47l9.31,9.31,13.57,14.71c1.37,1.48,3.26,2.35,5.28,2.42l31.77,1.13c1.15.04,2.29.26,3.37.64l8.39,2.94c6.19,2.17,22.04,16.62,1.08,13.77h0c-1.27.69-2.72.99-4.16.88l-31.37-2.41c-.31-.02-.61-.03-.92-.01l-27.57,1.25c-.51.02-1.02,0-1.53-.09l-45.53-7.24c-5.35-.85-8.09-6.9-5.19-11.48l8.43-13.35c.76-1.2,1.84-2.16,3.12-2.78l23.33-11.16Z"/>
    <g>
      <g>
        <path class="cls-1" d="M368.83,654.55s-49.35-46.28,154.05-78.08c203.4-31.8,328.84,27.78,328.84,27.78l-242.83,303.27-240.07-252.97Z"/>
        <path class="cls-2" d="M851.72,604.25c-19.61-.72-49.92,76.22-490.14,33.78,0,0-5.77,50.1,7.6,60.41,2.45,1.89,16.38,5.92,38.18,10.52l91.48,261.72c2.93,8.39,9.08,15.32,17.14,19.08,21.47,10.03,73.56,21.82,192.89,2.34,12.69-2.07,23.14-11.11,27.05-23.37l89.91-282.33c8.7-5.78,16.61-12.23,23.59-19.42,0,0,21.91-62.03,2.3-62.75Z"/>
        <path class="cls-3" d="M406.09,710.87c28,.38,56.01.13,84.01-.73,27.99-.87,55.96-2.36,83.89-4.47,15.7-1.19,31.38-2.57,47.04-4.15,1.9-.19,1.92-3.19,0-3-27.86,2.81-55.79,5-83.75,6.57-27.96,1.57-55.96,2.51-83.96,2.83-15.74.18-31.49.16-47.23-.05-1.93-.03-1.93,2.97,0,3h0Z"/>
        <path class="cls-3" d="M422.91,708.12c19,3.07,38.12,5.36,57.31,6.81,19.14,1.45,38.33,2.09,57.52,1.91,19.43-.19,38.84-1.23,58.25-2.23,18.6-.95,37.21-2,55.73-3.97,18.51-1.97,36.95-4.86,54.99-9.51,2.23-.57,4.45-1.18,6.67-1.8,1.85-.52,1.07-3.42-.8-2.89-17.82,5.04-36.09,8.3-54.46,10.48-18.42,2.19-36.94,3.36-55.45,4.35-19.15,1.02-38.31,2.07-57.48,2.46-19.13.39-38.27-.03-57.36-1.26-19.1-1.23-38.15-3.27-57.07-6.13-2.35-.36-4.7-.72-7.05-1.1-1.89-.31-2.7,2.58-.8,2.89h0Z"/>
        <path class="cls-3" d="M586.73,710.99c16.83.17,33.65.34,50.48.51,16.77.17,33.56.59,50.33.31,16.07-.26,31.99-1.84,47.76-4.97,15.53-3.09,30.78-7.45,45.78-12.47,15.08-5.04,29.93-10.74,44.73-16.53,1.83-.72,3.65-1.43,5.48-2.15s1-3.6-.8-2.89c-14.72,5.78-29.46,11.54-44.4,16.71-14.89,5.15-30,9.74-45.4,13.14-15.63,3.45-31.45,5.52-47.45,6.03-16.66.53-33.37.05-50.03-.11s-33.48-.34-50.23-.5l-6.25-.06c-1.93-.02-1.93,2.98,0,3h0Z"/>
      </g>
      <path class="cls-4" d="M419.53,716.33c4.47-2.1,11.1-1.68,17.29-1.49,5.27.24,11.35.57,17.07.94,40.72,3,99.35,4.89,141.67,6.23,4.45.42,7.75,1.13,9.78,2.38,8.1,4.72-6.04,20.24-10.5,27.15-8.38,11.59-17.51,24.66-20.83,38.75-10,39.49,45.22,67.73,49.31,109.48,2.52,26.03-9.18,47.24-.32,73.66,6.47,19.85,11.67,25.82-16.06,25.19-29.16-1.28-69.57,3.98-91.65-17.17-18.82-17.72-25.85-57.51-36.82-83.94-6.95-17.61-13.34-36.73-20.13-54.49-12.77-33.33-27.05-80.37-37.87-109.96-1.36-4.82-5.92-13.48-1-16.71l.06-.03Z"/>
      <path class="cls-6" d="M410.21,639.93s64.64-19.13,107.14-12.54c42.5,6.58,72.23-5.7,72.23-5.7l36.69,4.08,63.13,4.27,31.07-12.24,37.08,9.06,46.94-7.8s-49.49,47.3-394.28,20.88Z"/>
    </g>
    <path class="cls-6" d="M398.99,985.26l-4.14-7.44c-2.35-4.24,1.27-9.31,6.04-8.46l20.95,3.74c2.29.41,4.6-.6,5.85-2.55l8.37-13.01c.86-1.33,2.22-2.25,3.78-2.54l16.86-3.16c1.07-.2,2.18-.09,3.2.31l4.26,1.71c3.61,1.44,7.58-1.03,7.87-4.9l.39-5.13c.19-2.44,1.9-4.5,4.27-5.12l18.75-4.94c1.39-.37,2.86-.2,4.13.47l23.63,12.38c1.22.64,2.16,1.69,2.67,2.96l6.7,16.76c.24.6.38,1.23.41,1.88l2.25,27.17c.14,3.09-13.6,2.04-16.69,2.29l-48.43,3.6-63.16,5.16c-.65.05-1.3,0-1.93-.17l-7.93-2.09c-5.27-1.39-5.84-8.65-.84-10.84h0c3.11-1.36,4.37-5.1,2.72-8.07Z"/>
    <path class="cls-6" d="M699.69,1002.81l-12.33-14.74c-3.32-3.97-2.09-9.99,2.52-12.34l9.27-4.73c.9-.46,1.7-1.08,2.37-1.84l11.38-12.86c1.29-1.46,3.08-2.41,5.01-2.65l15.76-2.01c.58-.07,1.17-.08,1.75-.03l22.99,2.09c2.3.21,4.4,1.4,5.77,3.26l6.16,8.41c.57.78,1.27,1.44,2.07,1.97l17.55,11.54c1.42.93,2.5,2.28,3.1,3.87l.79,2.08c1.82,4.77-1.22,10.01-6.26,10.82l-20.66,3.29c-.65.1-1.28.29-1.88.54l-20.78,8.84c-1.23.52-2.57.73-3.89.61l-35.25-3.26c-2.12-.2-4.07-1.22-5.44-2.85Z"/>
  </g>
  <polygon class="cls-5" points="594.46 637.36 582.68 605.94 598.39 583.69 610.17 550.96 599.7 523.48 589.23 501.22 618.03 533.95 624.57 556.2 616.72 578.45 612.79 604.63 620.64 636.05 594.46 637.36"/>
  <path class="cls-7" d="M597.18,635.34c-2.04-4.89-3.7-9.92-4.94-15.07-.6-2.5-1.11-5.02-1.51-7.55-.12-.75-.03-.88.47-1.42.35-.37.67-.77.97-1.19.67-.94,1.14-2.01,1.46-3.12.53-1.86-2.36-2.65-2.89-.8-.32,1.12-.85,2.13-1.65,2.99s-1.51,1.57-1.45,2.87c.12,2.68.91,5.5,1.51,8.1,1.26,5.46,3,10.8,5.16,15.98.31.75.99,1.27,1.85,1.05.71-.19,1.36-1.1,1.05-1.85h0Z"/>
  <path class="cls-7" d="M615.38,634.37c-3.97-5.83-8.13-11.92-9.31-19.02-.56-3.39-.38-6.92.46-10.24.92-3.67,2.8-6.76,4.7-9.99.98-1.67-1.61-3.18-2.59-1.51-2.03,3.45-4.02,6.78-5,10.7-.9,3.59-1.1,7.33-.59,10.99,1.08,7.7,5.46,14.29,9.74,20.58,1.08,1.59,3.68.09,2.59-1.51h0Z"/>
  <path class="cls-7" d="M611.02,577.66c-2.27,2.7-5.52,4.26-7.94,6.79-2.81,2.95-3.86,7.17-5.25,10.9-.36.97.56,1.85,1.45,1.9,2.8.17,5.08-1.68,6.86-3.64,1.85-2.03,3.8-4.61,2.43-7.43-.84-1.74-3.43-.22-2.59,1.51.33.69-.23,1.54-.59,2.1-.49.76-1.12,1.43-1.74,2.08-1.18,1.24-2.56,2.47-4.38,2.37.48.63.96,1.27,1.45,1.9.7-1.87,1.37-3.75,2.1-5.61.64-1.64,1.48-3.09,2.74-4.33,2.38-2.32,5.42-3.86,7.58-6.43.52-.62.61-1.51,0-2.12-.53-.53-1.6-.62-2.12,0h0Z"/>
  <path class="cls-7" d="M597.03,521.94c4.82,4.93,8.73,10.73,11.44,17.08,1.34,3.14,2.75,6.68,3.11,10.1.39,3.65-1.41,7.09-.88,10.78.27,1.9,3.16,1.09,2.89-.8s.3-3.81.65-5.66.48-3.7.16-5.61c-.59-3.54-1.92-7.05-3.34-10.33-2.84-6.57-6.91-12.57-11.91-17.69-1.35-1.38-3.47.74-2.12,2.12h0Z"/>
  <path class="cls-7" d="M612.03,534.66c2.6,6.77,4.64,14.29,2.8,21.52-.89,3.48-2.58,6.66-4.3,9.79-1.71,3.12-3.4,6.29-5.98,8.79-1.39,1.35.74,3.47,2.12,2.12,2.71-2.63,4.54-5.92,6.34-9.2s3.74-6.91,4.71-10.7c1.98-7.76,0-15.82-2.8-23.12-.68-1.78-3.59-1.01-2.89.8h0Z"/>
  <path class="cls-7" d="M607.2,563.26c-2.76,4.18-3.67,9.38-2.63,14.27.17.79,1.1,1.25,1.85,1.05.82-.23,1.22-1.05,1.05-1.85-.88-4.12.02-8.45,2.33-11.96,1.07-1.62-1.53-3.12-2.59-1.51h0Z"/>
  <path class="cls-7" d="M596,513.07c1.09,3.06,2.71,5.84,4.84,8.29.52.59,1.6.57,2.12,0,.58-.63.55-1.49,0-2.12-.23-.26-.45-.53-.67-.8-.05-.07-.11-.14-.16-.21.18.23,0-.01-.04-.06-.1-.14-.21-.28-.31-.42-.42-.58-.81-1.19-1.17-1.81s-.68-1.22-.97-1.85c-.07-.16-.15-.32-.22-.48-.01-.03-.16-.36-.08-.18.07.16-.04-.1-.05-.12-.14-.34-.27-.69-.39-1.04-.26-.74-1.04-1.31-1.85-1.05-.73.24-1.33,1.05-1.05,1.85h0Z"/>
  <path class="cls-7" d="M595.69,636.48c-.42-.22-.57-.37-.79-.79-.79.61-1.57,1.21-2.36,1.82.73.84,1.63,1.38,2.68,1.71.98.31,1.84-.52,1.9-1.45-.08,1.36-1.39,1.01-.35,1.03.28,0,.6-.05.88-.13.68-.21,1.23-.71,1.38-1.42l-2.51.66c1.5,1.78,4.2.9,4.95-1.08-.91.12-1.83.24-2.74.36.61,1.34,2.09,2.37,3.49,1.47.72-.46.91-1.3.54-2.05-.21-.42-.42-.84-.63-1.26-.79.61-1.57,1.21-2.36,1.82.61.74,1.4,1.21,2.32,1.46.7.19,1.73-.24,1.85-1.05.04-.27.07-.54.11-.81-.84.22-1.67.44-2.51.66.52.58,1.11,1.05,1.79,1.43,1.38.77,2.67-.73,2.05-2.05h.06c-.79.1-1.57.2-2.36.31,1.24,1.38,3.28,1.64,4.86.68-.61-.79-1.21-1.57-1.82-2.36-.16.22-.37.34-.64.37-1.87.51-1.08,3.3.8,2.89,1.16-.25,2.24-.72,3.22-1.41-.75-.43-1.5-.86-2.26-1.3-.08,1.26.89,2.3,2.12,2.47,1.41.19,2.39-.78,3.16-1.81-.93-.25-1.86-.5-2.8-.76-.06,1.04.43,1.76,1.25,2.34.49.35,1.43.24,1.82-.23.37-.45.73-.9,1.1-1.34h-2.12c.48.54.95,1.08,1.43,1.62.53.6,1.58.56,2.12,0,.69-.72,1.08-1.59.95-2.6-.75.43-1.5.86-2.26,1.3.58.43,1.17.87,1.75,1.3.69.52,1.62.06,2.05-.54.36-.5.72-.99,1.08-1.49-.68.18-1.37.36-2.05.54.4.19.7.36,1.03.65.9.82,2.08.39,2.51-.66.22-.55.3-1.06.27-1.64l-2.26,1.3c-.28-.21.16.38.22.47.16.25.35.49.58.68.44.37.98.53,1.55.5,1.24-.08,2.2-1.16,1.82-2.41l-1.85,1.85c.22.03.41.13.57.27.35-.85.71-1.71,1.06-2.56-.85,0-1.7-.01-2.55-.02-1.93-.02-1.93,2.98,0,3,.85,0,1.7.01,2.55.02,1.22,0,2.09-1.71,1.06-2.56-.59-.49-1.16-.83-1.9-1.04-1.08-.32-2.18.76-1.85,1.85l.05.18.15-1.16c1.22.31,1.61.18,1.18-.4-.07-.15-.15-.28-.25-.41-.25-.36-.53-.59-.88-.85-.91-.68-2.31.23-2.26,1.3.06.3,0,.59-.16.85.84-.22,1.67-.44,2.51-.66-.5-.46-1.02-.83-1.63-1.12-.79-.37-1.54-.17-2.05.54-.36.5-.72.99-1.08,1.49.68-.18,1.37-.36,2.05-.54-.58-.43-1.17-.87-1.75-1.3-.86-.64-2.4.21-2.26,1.3.11.2.08.36-.07.48h2.12c-.48-.54-.95-1.08-1.43-1.62s-1.63-.6-2.12,0c-.37.45-.73.9-1.1,1.34l1.82-.23.24.25c.1-1.65-1.99-1.82-2.8-.76-.4.29-.3.57.31.85.07-1.09-1.35-1.94-2.26-1.3-.79.56-1.55.9-2.5,1.11l.8,2.89c.78-.21,1.39-.57,1.96-1.14,1.18-1.2-.34-3.26-1.82-2.36-.48.29-.84.21-1.22-.21-.65-.72-1.89-.5-2.36.3-.58,1.01-.55,1.99-.06,3.03l2.05-2.05c-.48-.26-.82-.55-1.19-.96-.69-.77-2.35-.46-2.51.66-.04.27-.07.54-.11.81.62-.35,1.23-.7,1.85-1.05-.47-.13-.69-.32-1-.69-1.14-1.38-3.08.38-2.36,1.82.21.42.42.84.63,1.26l.54-2.05c.81.31,1.08.31.81,0-.09-.12-.16-.25-.2-.39-.59-1.3-2.34-.71-2.74.36.07-.18.17-.12.06-.24-.71-.84-2.29-.4-2.51.66.19-.9,1.12-.6.22-.63-.3,0-.65.05-.93.15-.82.29-1.24.94-1.29,1.79.63-.48,1.27-.96,1.9-1.45-.58-.19-.96-.49-1.35-.94-1.16-1.33-3.12.37-2.36,1.82.44.83,1.04,1.43,1.87,1.87,1.71.9,3.22-1.69,1.51-2.59h0Z"/>
  <path class="cls-7" d="M606.49,635.17l-1.95-.24c-.16-.02-.33-.04-.49-.06-.19-.02-.16-.02.07.01-.07,0-.14-.02-.21-.03-.11-.02-.51-.19-.13-.01-.27-.13.21.22-.05-.03-.42-.42-.77-.93-1.15-1.4-.42-.52-.83-1.03-1.25-1.55-.49-.61-1.61-.55-2.12,0-.6.65-.53,1.47,0,2.12.44.55.88,1.1,1.33,1.65s.85,1.15,1.41,1.58c.71.55,1.56.6,2.42.71.71.09,1.42.18,2.14.26.35.04.82-.2,1.06-.44.26-.26.46-.69.44-1.06s-.14-.79-.44-1.06c-.31-.29-.64-.39-1.06-.44h0Z"/>
  <path class="cls-7" d="M606.64,635.76c-.81-1.14-1.69-2.22-2.66-3.23-.49.84-.97,1.67-1.46,2.51,1.47.54,2.94,1.08,4.4,1.62.49.18,1.11-.03,1.46-.39.4-.4.49-.92.39-1.46-.07-.37-.14-.75-.21-1.12-.07-.35-.39-.72-.69-.9-.32-.19-.8-.27-1.16-.15s-.71.34-.9.69c-.2.37-.23.74-.15,1.16.07.37.14.75.21,1.12.62-.62,1.23-1.23,1.85-1.85-1.47-.54-2.94-1.08-4.4-1.62-.31-.11-.69-.05-.98.08s-.57.33-.72.61c-.32.6-.24,1.32.23,1.82.64.66,1.24,1.35,1.8,2.08l-.23-.3c.21.28.42.56.63.85.23.33.5.58.9.69.36.1.84.05,1.16-.15.63-.41,1.02-1.37.54-2.05h0Z"/>
  <path class="cls-7" d="M612.35,635.42c-.05-.17-.08-.35-.11-.53l.05.4c-.05-.36-.04-.72,0-1.07l-.05.4c.05-.38.15-.74.29-1.1l-.15.36c.14-.33.32-.64.54-.93l-.23.3c.09-.11.18-.22.27-.32.54-.57.61-1.56,0-2.12s-1.54-.61-2.12,0c-1.35,1.43-1.9,3.5-1.38,5.4.2.76,1.08,1.3,1.85,1.05s1.27-1.03,1.05-1.85h0Z"/>
  <path class="cls-7" d="M618.1,637.28c.6-.44.99-.94,1.26-1.64.18-.47.24-1.01.21-1.51-.05-1.12-.54-2.13-.69-3.23l.05.4c-.02-.16-.03-.31-.03-.47-.93.25-1.86.5-2.8.76.83,1.29,1.66,2.58,2.5,3.86.35.54,1.04.9,1.69.69s1.09-.76,1.1-1.45c.03-1.66-.6-3.23-1.68-4.47-.52-.59-1.6-.57-2.12,0-.58.63-.55,1.49,0,2.12.04.04.07.09.11.13.13.16-.04-.08-.08-.1.08.05.14.2.19.28.13.2.23.42.34.63.08.17-.11-.3-.05-.13.02.05.04.11.06.16.04.11.07.21.1.32.06.23.11.47.14.7l-.05-.4c.03.25.04.5.04.76.93-.25,1.86-.5,2.8-.76-.84-1.28-1.67-2.57-2.5-3.86-.35-.54-1.05-.9-1.69-.69s-1.1.77-1.1,1.45c0,.63.13,1.27.3,1.87.14.48.3.96.38,1.47l-.05-.4c.04.31.05.62,0,.93l.05-.4c-.02.1-.03.21-.06.31-.01.06-.03.11-.05.16-.07.23.15-.28.06-.14-.02.04-.04.08-.06.12-.13.25.1-.11.1-.11,0,.02-.08.09-.09.1-.08.08-.28.22.09-.06-.32.24-.58.49-.69.9-.1.36-.05.84.15,1.16.4.62,1.38,1.04,2.05.54h0Z"/>
  <path class="cls-7" d="M598.61,634.5c.45.06-.01-.01-.1-.04-.13-.03-.26-.08-.38-.12-.15-.06-.12-.05.08.04-.06-.03-.12-.06-.18-.09-.12-.06-.23-.13-.35-.2-.06-.04-.31-.15-.33-.23l.14.11c-.05-.04-.11-.09-.16-.13-.21-.18-.41-.37-.6-.57-.1-.1-.19-.21-.28-.32-.05-.05-.09-.11-.14-.16-.1-.13-.09-.11.04.05-.07-.2-.32-.43-.44-.61-.32-.47-.61-.96-.89-1.45-.37-.65-1.2-.9-1.87-.61s-1.12,1.06-.87,1.77.44,1.39.58,2.11c.03.18.06.36.09.54-.02-.15-.02-.13,0,0,0,.09.02.18.03.27.02.18.03.36.04.54,0,.09,0,.18.01.27v.11c0-.15.06-.27.16-.38.13-.2.19-.25.38-.36.2-.13-.14,0,.1-.04s0,0-.05,0c-.07,0-.14,0-.2.01-.39.03-.78.08-1.15.21-.75.26-1.44.68-1.97,1.28-.76.86-.45,2.15.66,2.51.85.27,1.77.37,2.66.26.78-.1,1.54-.62,1.5-1.5-.03-.73-.67-1.61-1.5-1.5-.36.05-.71.04-1.08.03-.18-.02-.18-.02,0,0-.09-.01-.18-.03-.26-.05-.18-.04-.35-.09-.52-.14l.66,2.51c.11-.13.23-.23.35-.35s-.23.14,0,0c.06-.04.13-.08.19-.11.05-.02.33-.13.12-.06-.2.06.04,0,.08-.02.09-.03.18-.05.27-.07.22-.06-.01.04-.07,0,.07.04.37-.02.46-.03.24-.02.5-.05.73-.12.65-.2,1.23-.74,1.4-1.41.22-.91.02-1.96-.13-2.87-.13-.83-.35-1.65-.63-2.44l-2.74,1.16c.66,1.15,1.39,2.3,2.32,3.25.46.47,1,.91,1.58,1.24.72.41,1.46.6,2.28.7s1.53-.76,1.5-1.5c-.04-.9-.66-1.39-1.5-1.5h0Z"/>
</svg>