<?xml version="1.0" encoding="UTF-8"?>
<svg id="Camada_2" data-name="Camada 2" xmlns="http://www.w3.org/2000/svg" viewBox="0 0 1231.79 1878.39">
  <defs>
    <style>
      .cls-1 {
        fill: none;
      }

      .cls-2 {
        fill: #844800;
      }

      .cls-3 {
        fill: #380004;
        stroke-width: 3px;
      }

      .cls-3, .cls-4 {
        stroke: #7c1d00;
        stroke-miterlimit: 10;
      }

      .cls-5 {
        fill: #02280d;
      }

      .cls-6 {
        fill: #075b21;
      }

      .cls-7 {
        fill: #7c1d00;
      }

      .cls-4 {
        fill: #c1272d;
        stroke-width: 5px;
      }

      .cls-8 {
        fill: #3d1b01;
      }

      .cls-9 {
        opacity: .16;
      }

      .cls-10 {
        fill: #b77116;
      }

      .cls-11 {
        fill: #421e00;
      }

      .cls-12 {
        fill: #ce8628;
      }

      .cls-13 {
        fill: #025116;
      }

      .cls-14 {
        fill: #844f03;
      }
    </style>
  </defs>
  <g>
    <g>
      <polygon class="cls-13" points="422.28 1031.39 464.07 999.77 510.38 989.6 556.68 985.08 589.43 998.64 619.08 1019.81 630.38 1033.65 626.7 1056.24 632.35 1084.47 624.45 1124 627.83 1159.01 660.59 1173.69 674.14 1131.91 663.98 1090.12 657.2 1055.11 666.23 1029.13 627.83 981.7 602.99 974.92 591.41 946.97 547.65 952.33 515.18 955.44 478.75 952.33 457.29 988.47 433.58 1004.28 422.28 1031.39"/>
      <g>
        <g>
          <g>
            <path class="cls-3" d="M435.97,1180.07s-42.46-40.15,132.55-67.73c175.01-27.58,282.94,24.1,282.94,24.1l-208.93,263.08-206.56-219.45Z"/>
            <path class="cls-4" d="M851.46,1136.44c-16.87-.62-42.95,66.11-421.73,29.31,0,0-4.96,43.46,6.54,52.4,2.11,1.64,14.1,5.13,32.85,9.13l78.72,227.03c2.52,7.28,7.81,13.29,14.74,16.55,18.47,8.7,63.29,18.93,165.97,2.03,10.92-1.8,19.91-9.64,23.27-20.27l77.36-244.91c7.49-5.02,14.29-10.61,20.29-16.84,0,0,18.85-53.81,1.98-54.43Z"/>
            <path class="cls-7" d="M468.03,1229.13c24.16.33,48.33.12,72.49-.64s47.96-2.04,71.89-3.86c13.53-1.03,27.05-2.24,40.56-3.61,1.9-.19,1.92-3.2,0-3-24.04,2.44-48.14,4.35-72.27,5.71-23.96,1.35-47.95,2.17-71.95,2.45-13.57.16-27.15.14-40.72-.04-1.93-.03-1.93,2.97,0,3h0Z"/>
            <path class="cls-7" d="M482.45,1226.73c16.3,2.66,32.7,4.64,49.16,5.9s33.03,1.83,49.57,1.67,33.4-1.06,50.08-1.92,32.24-1.74,48.28-3.47,31.72-4.22,47.19-8.24c1.92-.5,3.83-1.02,5.74-1.57s1.07-3.42-.8-2.89c-15.35,4.38-31.09,7.21-46.93,9.1s-31.66,2.9-47.54,3.75c-16.52.88-33.05,1.8-49.59,2.14s-32.8-.03-49.16-1.09c-16.45-1.07-32.86-2.84-49.16-5.32-2.02-.31-4.05-.63-6.07-.96-1.89-.31-2.7,2.58-.8,2.89h0Z"/>
            <path class="cls-7" d="M623.46,1229.23c14.49.15,28.98.29,43.46.44s28.85.51,43.26.27c13.86-.23,27.6-1.6,41.19-4.33,13.34-2.67,26.44-6.46,39.33-10.8,14.59-4.91,28.92-10.55,43.24-16.22,1.77-.7,1-3.61-.8-2.89-25.26,10.01-50.71,19.98-77.3,25.9-13.41,2.99-26.99,4.77-40.72,5.21s-28.64.05-42.95-.1c-16.24-.16-32.47-.33-48.71-.49-1.93-.02-1.93,2.98,0,3h0Z"/>
          </g>
          <path class="cls-9" d="M479.6,1233.67c3.85-1.83,9.55-1.45,14.88-1.29,4.53.21,9.76.49,14.68.81,35.04,2.6,85.49,4.24,121.9,5.4,3.83.37,6.67.98,8.42,2.07,6.97,4.1-5.2,17.55-9.03,23.55-7.21,10.05-15.07,21.39-17.93,33.62-8.6,34.25,38.91,58.76,42.42,94.97,2.17,22.58-7.9,40.98-.27,63.9,5.57,17.22,10.04,22.4-13.82,21.85-25.09-1.11-59.86,3.45-78.86-14.89-16.2-15.38-22.24-49.89-31.68-72.82-5.98-15.27-11.48-31.86-17.32-47.27-10.99-28.91-23.28-69.72-32.59-95.38-1.17-4.18-5.09-11.7-.86-14.5l.05-.03Z"/>
          <path class="cls-11" d="M471.57,1167.39s55.62-16.59,92.18-10.88,62.15-4.94,62.15-4.94l31.57,3.54,54.32,3.7,26.73-10.62,31.91,7.86,40.39-6.76s-42.58,41.04-339.25,18.11Z"/>
        </g>
        <path class="cls-6" d="M638.67,1158.49c-4.37-12.51-8.01-25.26-10.91-38.19-.42-1.88-3.31-1.09-2.89.8,2.89,12.93,6.53,25.68,10.91,38.19.63,1.81,3.53,1.03,2.89-.8h0Z"/>
        <path class="cls-6" d="M644.43,1157.83c-1.9-16.09-1.22-32.43,2.1-48.29.39-1.88-2.5-2.69-2.89-.8-3.37,16.12-4.14,32.73-2.21,49.09.22,1.89,3.23,1.92,3,0h0Z"/>
        <path class="cls-5" d="M661.51,1158.02c8.49-22.93,8.21-48.13.05-71.08-2.35-6.62-4.96-13.42-4.04-20.57.24-1.91-2.76-1.89-3,0-.78,6.12.92,12.12,2.9,17.85s4.03,11.55,5.3,17.59c2.48,11.77,2.82,24.06.96,35.94-1.04,6.64-2.74,13.17-5.08,19.47-.67,1.81,2.23,2.6,2.89.8h0Z"/>
        <path class="cls-5" d="M653.34,1112.74c-7.94-10.47-11.94-23.57-11.48-36.67.23-6.62,1.66-13.09,4.15-19.23s6.19-12.96,5.3-20.02c-.77-6.11-4.8-12.21-11.37-12.77l1.45,1.9c3.13-11.5-6.23-24.15-18.1-24.64-1.93-.08-1.93,2.92,0,3,9.94.41,17.81,11.27,15.21,20.84-.27,1,.49,1.82,1.45,1.9,5.43.46,8.37,6.58,8.5,11.43.19,6.91-3.79,13.28-6.11,19.57-4.35,11.78-4.58,24.99-1.12,37.02,1.98,6.91,5.2,13.45,9.54,19.18,1.15,1.52,3.76.03,2.59-1.51h0Z"/>
        <path class="cls-5" d="M646.37,1046.75c-5.79-17.56-16.86-33.3-31.43-44.69-4.15-3.24-8.54-6.15-13.17-8.65-1.7-.92-3.21,1.67-1.51,2.59,15.79,8.53,28.82,21.76,37.25,37.59,2.38,4.48,4.37,9.14,5.96,13.96.6,1.82,3.5,1.04,2.89-.8h0Z"/>
        <path class="cls-5" d="M597.31,984.45c-5.24-8.3-10.47-16.61-15.71-24.91-1.03-1.63-3.62-.13-2.59,1.51,5.24,8.3,10.47,16.61,15.71,24.91,1.03,1.63,3.62.13,2.59-1.51h0Z"/>
        <path class="cls-5" d="M586.85,991.03c-7.36-7.99-16.47-14.15-26.58-18.11l.66,2.51c7.05-7.77,15-14.67,23.71-20.54,1.59-1.07.09-3.67-1.51-2.59-8.91,6-17.09,13.05-24.31,21.01-.81.89-.4,2.09.66,2.51,9.62,3.77,18.26,9.75,25.25,17.34,1.31,1.42,3.43-.7,2.12-2.12h0Z"/>
        <path class="cls-5" d="M576.27,969.03c-16.65-2.59-33.52-3.72-50.37-3.29-4.81.12-9.61.37-14.41.74-1.91.15-1.93,3.15,0,3,16.59-1.27,33.28-1.08,49.83.62,4.73.48,9.45,1.1,14.15,1.83,1.89.29,2.7-2.6.8-2.89h0Z"/>
        <path class="cls-5" d="M498.11,964.23c-16.53,9.71-32.01,21.2-46.08,34.22-4.01,3.71-7.9,7.55-11.67,11.5-1.33,1.4.78,3.52,2.12,2.12,13.12-13.74,27.69-26.06,43.45-36.65,4.47-3.01,9.04-5.87,13.68-8.6,1.66-.98.16-3.57-1.51-2.59h0Z"/>
        <path class="cls-5" d="M437.16,1023.18c3.75-14.41,8.42-31.26,23.1-38.17,1.75-.82.22-3.41-1.51-2.59-15.4,7.25-20.54,24.82-24.48,39.97-.49,1.87,2.41,2.67,2.89.8h0Z"/>
        <path class="cls-5" d="M454.39,1004.16c11.86-15.41,23.08-31.3,33.64-47.63,1.05-1.63-1.54-3.13-2.59-1.51-10.56,16.33-21.78,32.22-33.64,47.63-.5.65-.09,1.67.54,2.05.77.46,1.56.1,2.05-.54h0Z"/>
        <path class="cls-5" d="M461.01,1001.83c19.79-5.29,35.52-20.72,56.07-23.74,5.61-.82,11.33-.5,16.7,1.36,1.83.63,2.61-2.26.8-2.89-20.78-7.18-40.53,6.81-58.15,15.85-5.2,2.67-10.56,5.02-16.22,6.53-1.86.5-1.07,3.39.8,2.89h0Z"/>
        <path class="cls-5" d="M497.11,991.41c18.92-10.27,41.3-9.51,61.92-6.14,6.24,1.02,12.44,2.26,18.64,3.5,1.89.38,2.69-2.51.8-2.89-21.75-4.36-44.39-8.77-66.38-3.38-5.73,1.41-11.29,3.5-16.48,6.32-1.7.92-.18,3.51,1.51,2.59h0Z"/>
        <path class="cls-5" d="M520.49,958.43c10.46-.03,20.91.92,31.18,2.9,5.08.98,10.12,2.2,15.08,3.66,4.6,1.35,9.28,2.76,13.49,5.1,3.9,2.16,6.94,5.2,9.24,9.01s3.8,7.67,5.53,11.58,3.8,7.85,6.4,11.39,5.45,6.63,8.61,9.55c7.27,6.7,15.64,12.07,23.98,17.34,1.64,1.03,3.14-1.56,1.51-2.59-7.5-4.74-15.04-9.54-21.73-15.4s-12.02-12.61-15.69-20.71-6.69-16.47-14.37-21.56c-3.88-2.57-8.34-4.15-12.74-5.55-5.01-1.59-10.09-2.94-15.23-4.04-11.58-2.48-23.42-3.71-35.25-3.67-1.93,0-1.93,3.01,0,3h0Z"/>
        <path class="cls-5" d="M615.23,989.02c14.21,10.88,27.18,24.12,35.44,40.15,4.35,8.44,7.2,17.61,8.27,27.06,1.19,10.55.42,21.23-1.36,31.66-2.04,11.94-5.32,23.62-8.65,35.25-.53,1.86,2.36,2.65,2.89.8,6-20.93,12.13-42.69,10.41-64.69-.78-9.93-3.28-19.56-7.49-28.58-3.9-8.34-9.14-15.99-15.12-22.97-6.8-7.93-14.59-14.93-22.87-21.27-1.53-1.17-3.03,1.43-1.51,2.59h0Z"/>
        <path class="cls-5" d="M642.82,1045.79c-4.5,14.88-8.99,29.8-11.94,45.08-1.44,7.48-2.51,15.03-3.01,22.63-.25,3.81-.36,7.63-.29,11.45.06,3.46.15,6.99.89,10.38s2.33,6.72,5.13,8.93c2.64,2.09,6.1,3.11,9.38,2.05,1.83-.59,1.05-3.49-.8-2.89-2.62.85-5.33-.15-7.29-1.98-2.22-2.07-3.22-5-3.73-7.92-.57-3.28-.58-6.68-.6-10-.02-3.66.11-7.32.38-10.97,1.04-14.38,4.15-28.52,7.91-42.4,2.14-7.9,4.5-15.73,6.87-23.56.56-1.85-2.33-2.64-2.89-.8h0Z"/>
        <path class="cls-5" d="M646.85,1079.91c.18,19.47.36,38.95.55,58.42.02,2.22-.42,4.95.64,6.99.87,1.68,2.7,2.6,4.28,1.2,1.45-1.29-.68-3.4-2.12-2.12.18-.16.72.13.75-.1,0-.04-.15-.17-.16-.22-.07-.32-.28-.58-.33-.93-.14-.99-.03-2.08-.04-3.09l-.06-6.46c-.04-4.31-.08-8.62-.12-12.93-.08-8.7-.16-17.4-.24-26.1-.05-4.89-.09-9.78-.14-14.67-.02-1.93-3.02-1.93-3,0h0Z"/>
        <path class="cls-5" d="M657.99,1092.78c3.12,16.33,6.74,32.57,10.87,48.68.48,1.87,3.37,1.08,2.89-.8-4.13-16.11-7.75-32.34-10.87-48.68-.36-1.89-3.25-1.09-2.89.8h0Z"/>
      </g>
    </g>
    <g>
      <path class="cls-10" d="M226.69,1380.79s66.07-13.9,96.56-33.97c30.49-20.08,69.46,6.18,69.46,26.25s-33.88,75.67-71.15,64.86c-37.27-10.81-99.95-29.34-94.87-57.14Z"/>
      <path class="cls-2" d="M331.72,1311.3s62.68-38.61,84.71-23.16c22.02,15.44,54.21,30.89,52.52,47.87-1.69,16.99-55.91,32.43-84.71,0-28.8-32.43-40.66-29.34-52.52-24.71Z"/>
      <path class="cls-10" d="M414.73,1376.16s-30.49,9.27-18.64,33.97c11.86,24.71,30.49,44.78,5.08,46.33-25.41,1.54,71.15,20.08,86.4-16.99,15.25-37.06,13.55-78.76-13.55-74.12-27.11,4.63-59.29,10.81-59.29,10.81Z"/>
      <path class="cls-12" d="M355.69,1370.3c-6.33,7.98-13.07,16.26-22.35,20.93-9.74,4.9-20.69,3.61-31.22,4.24-5.83.35-11.68,1.37-16.78,4.36-1.66.98-.16,3.57,1.51,2.59,9.37-5.51,20.98-3.75,31.35-4.45,5.34-.36,10.53-1.33,15.42-3.57s8.95-5.36,12.71-8.93c4.2-4,7.87-8.52,11.47-13.05,1.19-1.5-.92-3.63-2.12-2.12h0Z"/>
      <path class="cls-12" d="M452.43,1392.78c-6.06,1.02-9.69,6.29-10.74,12.04-.54,2.97-.53,5.99-.04,8.97.65,3.95,2.06,7.75,2.92,11.65.98,4.48,1.33,9.2-1.06,13.32-.97,1.67,1.62,3.19,2.59,1.51,7.43-12.84-6.99-26.86.2-39.69,1.51-2.69,3.88-4.4,6.93-4.91,1.9-.32,1.09-3.21-.8-2.89h0Z"/>
      <path class="cls-14" d="M434.89,1330.43c-5.03.87-9.32-2.27-12.84-5.46-4.04-3.66-7.7-7.94-12.48-10.68-2.61-1.5-5.51-2.39-8.53-2.35-1.93.03-1.93,3.03,0,3,5.39-.08,9.7,3.46,13.43,6.96s7.62,7.95,12.53,10.23c2.78,1.28,5.67,1.71,8.69,1.19,1.9-.33,1.09-3.22-.8-2.89h0Z"/>
    </g>
    <g>
      <path class="cls-8" d="M416.43,1374.83s-53.57,14.04-77.49,29.52c-23.92,15.48-57.55,1.05-58.74-12.18-1.19-13.23,23.42-52.38,54.75-48.01,31.32,4.38,84.02,11.97,81.48,30.66Z"/>
      <path class="cls-2" d="M334.06,1428.39s-49.33,30.07-68.37,21.52c-19.04-8.55-46.46-16.36-46.07-27.68s44.11-25.5,69.74-6.25c25.63,19.25,35.21,16.34,44.7,12.41Z"/>
      <path class="cls-8" d="M261.88,1391.76s24.56-8.36,13.34-23.77c-11.22-15.41-27.75-27.27-6.92-30.16,20.83-2.89-59.77-7.98-70.13,17.57-10.36,25.56-6.5,52.92,15.54,47.86,22.04-5.05,48.18-11.5,48.18-11.5Z"/>
      <path class="cls-12" d="M310.96,1391.7c5.11-6.17,10.53-12.25,17.87-15.77,7.84-3.76,16.79-3.59,25.23-4.8,4.52-.64,9.02-1.71,13-4.03,1.67-.97.16-3.57-1.51-2.59-7.38,4.3-16.53,4.04-24.75,5.14-4.26.57-8.42,1.46-12.38,3.19s-7.33,4.1-10.46,6.89c-3.35,2.99-6.26,6.41-9.12,9.85-1.22,1.48.89,3.61,2.12,2.12h0Z"/>
      <path class="cls-12" d="M229.85,1384.1c5.58-1.29,8.87-6.22,8.51-11.86-.2-3.12-1.54-5.81-2.78-8.63-1.48-3.39-2.93-7.18-.91-10.65.98-1.67-1.62-3.18-2.59-1.51-1.83,3.13-1.7,6.6-.58,9.95,1.03,3.07,2.85,5.91,3.59,9.07.49,2.07.43,4.39-.42,6.37-1.04,2.4-3.12,3.79-5.62,4.37-1.88.44-1.08,3.33.8,2.89h0Z"/>
      <path class="cls-14" d="M247.97,1423.91c5.24-1.18,9.79,1.86,14,4.55,4.51,2.88,9.33,5.67,14.89,5.13,1.9-.19,1.92-3.19,0-3-5.59.55-10.16-2.69-14.66-5.54s-9.47-5.29-15.03-4.03c-1.88.43-1.09,3.32.8,2.89h0Z"/>
    </g>
  </g>
  <rect class="cls-1" x="50.17" y="346.99" width="1131.45" height="1184.42"/>
</svg>