<?xml version="1.0" encoding="UTF-8"?>
<svg id="Camada_2" data-name="Camada 2" xmlns="http://www.w3.org/2000/svg" viewBox="0 0 650.54 582.78">
  <defs>
    <style>
      .cls-1 {
        fill: #a95101;
      }

      .cls-1, .cls-2 {
        fill-rule: evenodd;
      }

      .cls-3 {
        fill: #faedd7;
        opacity: .67;
      }

      .cls-2 {
        fill: #faab19;
      }

      .cls-4 {
        font-family: Nove, Nove;
        font-size: 42.73px;
      }
    </style>
  </defs>
  <circle class="cls-3" cx="325.15" cy="306.84" r="162.63"/>
  <g>
    <g>
      <path class="cls-2" d="M325.15,308.92c-5.28,0-9.57,4.29-9.57,9.57s4.29,9.57,9.57,9.57,9.57-4.29,9.57-9.57-4.29-9.57-9.57-9.57ZM326.85,232.82h-3.39c-4.35,0-7.88,3.53-7.88,7.88v44.1c0,4.35,3.53,7.88,7.88,7.88h3.39c4.35,0,7.88-3.53,7.88-7.88v-44.1c0-4.35-3.53-7.88-7.88-7.88ZM304.65,218.8c4.23-7.32,12.04-11.83,20.5-11.83s16.27,4.51,20.5,11.83l51.17,88.62c4.23,7.32,4.23,16.35,0,23.67-4.23,7.32-12.04,11.83-20.5,11.83h-102.33c-8.46,0-16.27-4.51-20.5-11.83-4.23-7.32-4.23-16.35,0-23.67l51.17-88.62Z"/>
      <path class="cls-1" d="M326.85,236.92h-3.39c-2.08,0-3.77,1.69-3.77,3.77v44.1c0,2.08,1.69,3.78,3.77,3.78h3.39c2.08,0,3.77-1.69,3.77-3.78v-44.1c0-2.08-1.69-3.77-3.77-3.77ZM326.85,228.72c6.61,0,11.98,5.36,11.98,11.98v44.1c0,6.61-5.36,11.98-11.98,11.98h-3.39c-6.61,0-11.98-5.36-11.98-11.98v-44.1c0-6.61,5.36-11.98,11.98-11.98h3.39ZM325.15,313.02c-3.02,0-5.47,2.45-5.47,5.47s2.45,5.47,5.47,5.47,5.47-2.45,5.47-5.47-2.45-5.47-5.47-5.47ZM325.15,304.82c7.55,0,13.67,6.13,13.67,13.67s-6.13,13.67-13.67,13.67-13.67-6.13-13.67-13.67,6.13-13.67,13.67-13.67ZM308.21,220.85l-51.17,88.62c-3.5,6.05-3.5,13.51,0,19.57,3.5,6.05,9.96,9.78,16.95,9.78h102.33c6.99,0,13.45-3.73,16.95-9.78,3.5-6.05,3.5-13.51,0-19.57l-51.17-88.62c-3.5-6.05-9.96-9.78-16.95-9.78s-13.45,3.73-16.95,9.78ZM301.1,216.75c4.96-8.59,14.13-13.89,24.05-13.89s19.09,5.29,24.05,13.89l51.17,88.62c4.96,8.59,4.96,19.18,0,27.77s-14.13,13.89-24.05,13.89h-102.33c-9.92,0-19.09-5.29-24.05-13.89-4.96-8.59-4.96-19.18,0-27.77l51.17-88.62Z"/>
    </g>
    <text class="cls-4" transform="translate(243.17 389.84)"><tspan x="0" y="0">Fungos!</tspan></text>
  </g>
</svg>